<?xml version="1.0" standalone="no"?><!DOCTYPE svg PUBLIC "-//W3C//DTD SVG 1.1//EN" "http://www.w3.org/Graphics/SVG/1.1/DTD/svg11.dtd"><svg t="1550048246251" class="icon" style="" viewBox="0 0 1024 1024" version="1.1" xmlns="http://www.w3.org/2000/svg" p-id="6293" xmlns:xlink="http://www.w3.org/1999/xlink" width="48" height="48"><defs><style type="text/css"></style></defs><path d="M93.4 760.7c-24.6-21.3-22.5-60 4.1-78.7C256.3 570.9 393 431.3 500.8 270.2l50-74.8 60.3 48.9-8.3 148.7C589.4 632.7 372.3 808.7 135 772.2c-14.9 2.7-30.1-1.5-41.6-11.5z" fill="#F28400" p-id="6294"></path><path d="M67.4 722.7c-24.6-21.3 3.5-22 30.2-40.7a1565.12 1565.12 0 0 0 403.2-411.8l50-74.8 23.6-3.5s6.9 145-14.1 186.9c-154.5 309-345.3 331.6-472 355.3l46.7 38.2c-14.9 2.6-67.6-49.6-67.6-49.6z" fill="#FFCE31" p-id="6295"></path><path d="M429.6 393.1c-5.4 0-10.9-1.8-15.5-5.4-10.8-8.5-12.7-24.3-4.2-35.1 1.9-2.4 3.7-4.7 5.6-7.1 8.5-10.9 24.2-12.9 35.1-4.4 10.9 8.5 12.9 24.2 4.4 35.1-1.9 2.5-3.8 4.9-5.8 7.4-4.9 6.2-12.2 9.5-19.6 9.5z" fill="#231E21" p-id="6296"></path><path d="M197.8 802c-20.9 0-41.8-1.5-62.8-4.6-21 2.5-41.9-3.9-57.9-17.9-17.6-15.2-26.9-37.3-25.7-60.5 1.2-23.2 12.8-44.2 31.9-57.5 106-74.2 202.5-161.8 286.7-260.2 9-10.5 24.8-11.7 35.2-2.7s11.7 24.8 2.7 35.2c-87 101.6-186.6 192-296.1 268.7-6.3 4.4-10.2 11.4-10.6 19.2s2.7 15.1 8.6 20.2c5.7 5 13.3 7.1 20.8 5.7 2.7-0.5 5.5-0.5 8.2-0.1 54.3 8.4 108.4 5.2 160.8-9.5 50.4-14.1 96.7-38.1 137.5-71.2C478 633.7 511 593.3 535.2 547c25.2-48.2 39.5-100.4 42.5-155.3l7.6-135.9-29.1-23.6-34.8 52c-8 12-16.4 24.1-24.7 35.8-8 11.3-23.6 13.9-34.9 5.9-11.3-8-13.9-23.6-5.9-34.9 8.1-11.4 16.1-23.1 23.9-34.7l50-74.8c3.9-5.8 10.1-9.8 17-10.8 7-1 14 0.9 19.5 5.3l60.3 48.9c6.2 5.1 9.7 12.8 9.2 20.8l-8.3 148.6c-3.5 62.1-19.7 121.2-48.2 175.7-27.4 52.5-64.7 98-111 135.5s-98.6 64.6-155.5 80.5c-37.5 10.7-76.1 16-115 16z" fill="#231E21" p-id="6297"></path><path d="M87 766.5c-11.5 0-21.9-8-24.4-19.8-2.9-13.5 5.7-26.8 19.2-29.7 111.8-24 206.5-65 281.3-122 59.4-45.3 106.6-100.7 140.3-164.8 57.8-110 56.1-208.9 56-209.9-0.4-13.8 10.5-25.3 24.3-25.7 13.8-0.4 25.3 10.5 25.7 24.3 0.1 4.5 2.4 111-60.5 232.2-36.9 71.1-88.8 132.5-154.1 182.6-80.9 62-182.7 106.5-302.5 132.2-1.8 0.4-3.6 0.6-5.3 0.6z" fill="#231E21" p-id="6298"></path><path d="M443.6 900.7c-31.3-8.9-45.8-44.9-29.5-73.1C510.9 659.9 575.8 475.5 605.4 284l13.8-88.9 75.3 18.9 55.3 138.2c89.2 222.9-33.2 474.2-263.7 541.4-12.3 8.6-28 11.3-42.5 7.1z" fill="#F28400" p-id="6299"></path><path d="M403.9 877.3c-31.3-8.9-6.1-21.4 10.2-49.6A1567.39 1567.39 0 0 0 605.4 284l13.8-88.9 19.9-13.1 34.2 186c16.9 354.5-140.8 435.8-245.6 510.7l58.4 14.8c-12.3 8.7-82.2-16.2-82.2-16.2z" fill="#FFCE31" p-id="6300"></path><path d="M457.4 927.7c-6.9 0-13.9-1-20.7-2.9-22.4-6.4-40.2-22.4-48.9-44-8.7-21.6-7-45.5 4.6-65.6 47.4-82.2 87.5-169.2 119-258.7s54.8-182.4 69.3-276.2l13.8-88.9c1.1-6.9 5-13.1 10.9-17 5.9-3.9 13.1-5.1 19.9-3.4l75.3 18.9c7.8 1.9 14.2 7.5 17.1 15l55.3 138c23.1 57.7 33.4 118.1 30.6 179.6-2.7 59.1-17.2 116.2-43.3 169.7-26.1 53.5-62 100.2-106.9 138.7-45.7 39.3-98.4 68-156.6 85.5-12 7.5-25.6 11.3-39.4 11.3zM639.7 226l-9.6 61.8c-15 96.8-39.1 192.8-71.6 285.2-32.5 92.4-73.9 182.3-122.9 267.1-3.9 6.7-4.4 14.7-1.5 21.9 2.9 7.2 8.8 12.5 16.3 14.7 7.3 2.1 15 0.8 21.3-3.6 2.3-1.6 4.8-2.8 7.4-3.6 52.8-15.4 100.5-41.1 141.7-76.6 39.7-34.1 71.5-75.4 94.6-122.7 23-47.3 35.9-97.8 38.3-150.1 2.5-54.3-6.7-107.7-27.1-158.8L676 235.1l-36.3-9.1z" fill="#231E21" p-id="6301"></path><path d="M429.7 911c-7.6 0-15-3.4-20-9.9-8.3-11-6.2-26.7 4.9-35 91.1-68.9 157.8-146 198.2-229.3 32.1-66.1 47.9-136.3 47.1-208.7-1.5-124.6-52.5-214.1-53-215-6.9-11.9-2.9-27.2 9.1-34.2 11.9-6.9 27.2-2.9 34.1 9 2.3 4 57.5 100 59.8 237.1 1.4 80.6-15.9 158.8-51.3 232.2-43.9 91-115.8 174.7-213.7 248.8-4.7 3.3-10 5-15.2 5z" fill="#231E21" p-id="6302"></path><path d="M742.4 931c-32.4 2.3-58.4-26.5-52.7-58.5 33.6-190.8 31.6-386.2-6.1-576.3l-17.5-88.3 77.2-8 99.2 110.9c160.1 179 131 456.9-62.6 598.9-8.6 12.4-22.4 20.2-37.5 21.3z" fill="#F28400" p-id="6303"></path><path d="M697.1 922.5c-32.4 2.3-13.1-18.1-7.4-50.1 33.6-190.8 31.6-386.2-6.1-576.3l-17.5-88.3 14.2-19.2L776 351.8c137.2 327.4 16.7 457.7-56.1 564l60-6c-8.6 12.3-82.8 12.7-82.8 12.7z" fill="#FFCE31" p-id="6304"></path><path d="M738.8 956.1c-21.2 0-41.2-8.9-55.6-24.8C667.6 914 661 891 665 868.1c16.5-93.5 24.3-188.9 23.3-283.8S677.5 394.1 659 301l-17.5-88.3c-1.4-6.9 0.2-14 4.4-19.7 4.2-5.7 10.5-9.3 17.5-10l77.2-8c8-0.8 15.9 2.2 21.2 8.2L861 294.1c14 15.7 27 32.5 38.5 49.9 18.6 28.1 33.8 58.3 45.4 89.8 1.8 4.9 3.5 9.9 5.1 14.9 4.2 13.1-3 27.2-16.1 31.5-13.1 4.2-27.2-3-31.5-16.1-1.4-4.4-3-8.9-4.5-13.2-10.2-27.8-23.6-54.5-40.1-79.3-10.2-15.4-21.7-30.3-34.1-44.2L733.2 226l-37.2 3.9 12.2 61.4c19 96.1 29.2 194.5 30.3 292.5 1 98-7.1 196.6-24.1 293-1.3 7.6 0.9 15.3 6 21.1 5.2 5.8 12.6 8.8 20.3 8.2 7.6-0.5 14.4-4.4 18.8-10.6 1.6-2.3 3.5-4.2 5.7-5.9 42.4-31.1 77.2-69.5 103.5-114.3 25.3-43.1 41.7-90.2 48.7-140 1.9-13.7 14.6-23.2 28.2-21.3 13.7 1.9 23.2 14.6 21.3 28.2-7.9 56.3-26.5 109.6-55.1 158.3-29.1 49.6-67.5 92.3-114 127.1-13.1 16.6-32.4 26.8-53.6 28.3-1.8 0.1-3.6 0.2-5.4 0.2z" fill="#231E21" p-id="6305"></path><path d="M945.4 583.5c-13.2 0-24.2-10.3-24.9-23.6-0.3-4.7-0.6-9.5-1.1-14.2-1.3-13.7 8.8-25.9 22.6-27.2 13.7-1.3 25.9 8.8 27.2 22.6 0.5 5.3 0.9 10.7 1.2 16 0.8 13.8-9.8 25.6-23.5 26.4h-1.5zM724.2 946.9c-4.7 0-9.4-1.3-13.6-4-11.6-7.5-14.9-23-7.4-34.6 62.3-96.4 98.7-192.2 108-284.7 7.4-73.3-2.1-144.9-28.1-212.9-44.4-115.9-121.8-181.2-122.5-181.8-10.6-8.8-12.1-24.6-3.2-35.2 8.8-10.6 24.6-12.1 35.2-3.2 3.6 3 88.2 74.4 137.3 202.4 28.9 75.3 39.3 154.6 31.2 235.8C851 729.2 812 832.4 745.3 935.6c-4.9 7.3-12.9 11.3-21.1 11.3z" fill="#231E21" p-id="6306"></path><path d="M742.6 192h-193l13.7-70.1 165.5-29z" fill="#F28400" p-id="6307"></path><path d="M742.6 217h-193c-7.5 0-14.6-3.3-19.3-9.1s-6.7-13.4-5.2-20.7l13.8-70.1c2-10.1 10-18 20.2-19.8l165.5-29c6.7-1.2 13.5 0.4 19 4.4s9.1 10 10 16.8l13.8 99.1c1 7.2-1.2 14.4-5.9 19.9s-11.6 8.5-18.9 8.5z m-162.7-50h134l-6.3-45-123.1 21.5-4.6 23.5z" fill="#231E21" p-id="6308"></path><path d="M400.9 525.5c-6.4 0-12.8-2.4-17.7-7.3-9.8-9.8-9.8-25.6 0-35.4 26.4-26.4 53.9-72 54.2-72.4 7.1-11.8 22.5-15.7 34.3-8.6 11.8 7.1 15.7 22.5 8.6 34.3-1.2 2.1-30.9 51.3-61.7 82-4.9 5-11.3 7.4-17.7 7.4zM343.1 582.5c-6.4 0-12.8-2.4-17.7-7.3-9.8-9.8-9.8-25.6 0-35.4l9.7-9.7c9.8-9.8 25.6-9.8 35.4 0 9.8 9.8 9.8 25.6 0 35.4l-9.7 9.7c-4.9 4.8-11.3 7.3-17.7 7.3z" fill="#FFFFFF" p-id="6309"></path></svg>