<?xml version="1.0" standalone="no"?><!DOCTYPE svg PUBLIC "-//W3C//DTD SVG 1.1//EN" "http://www.w3.org/Graphics/SVG/1.1/DTD/svg11.dtd"><svg t="1550048251321" class="icon" style="" viewBox="0 0 1024 1024" version="1.1" xmlns="http://www.w3.org/2000/svg" p-id="6506" xmlns:xlink="http://www.w3.org/1999/xlink" width="48" height="48"><defs><style type="text/css"></style></defs><path d="M160.9 657v245.4h702.3V416.8c40-30.1 63.1-65.7 63.1-103.9 0-108.1-185.5-195.8-414.2-195.8S97.8 204.7 97.8 312.9c0 38.2 23.1 73.8 63.1 103.9v85.8" fill="#FFCE31" p-id="6507"></path><path d="M673.8 132.6c82.3 39.1 133.8 95.1 133.8 157.4 0 41.7-23.1 80.6-63.1 113.5v499h118.6V416.8c40-30.1 63.1-65.7 63.1-103.9 0-81-104-150.5-252.4-180.3z" fill="#F28400" p-id="6508"></path><path d="M863.1 756c-13.8 0-25-11.2-25-25V416.8c0-7.8 3.7-15.2 10-20 24.2-18.3 53.1-47.6 53.1-83.9 0-20.1-8.8-40.1-26.2-59.5-18.4-20.5-46.3-40-80.8-56.3-75-35.4-175.2-55-282.2-55s-207.2 19.5-282.2 55c-34.5 16.3-62.5 35.8-80.8 56.3-17.4 19.4-26.2 39.5-26.2 59.5 0 36.3 28.9 65.7 53.1 83.9 6.3 4.7 10 12.1 10 20v85.8c0 13.8-11.2 25-25 25s-25-11.2-25-25v-73.7c-41.3-34.3-63.1-74.2-63.1-116 0-62.5 48.2-119.7 135.6-161.1C289.9 113.3 397.7 92 512 92s222.1 21.2 303.6 59.8c87.5 41.3 135.6 98.5 135.6 161.1 0 41.8-21.8 81.7-63.1 116V731c0 13.8-11.1 25-25 25zM863.1 927.4H160.9c-13.8 0-25-11.2-25-25V657c0-13.8 11.2-25 25-25s25 11.2 25 25v220.4h652.3V807c0-13.8 11.2-25 25-25s25 11.2 25 25v95.4c-0.1 13.8-11.2 25-25.1 25zM160.9 610.3c-13.8 0-25-11.2-25-25v-11.9c0-13.8 11.2-25 25-25s25 11.2 25 25v11.9c0 13.8-11.2 25-25 25z" fill="#231E21" p-id="6509"></path><path d="M574.1 494.4m-36.7 0a36.7 36.7 0 1 0 73.4 0 36.7 36.7 0 1 0-73.4 0Z" fill="#F28400" p-id="6510"></path><path d="M265.5 261.5m-36.7 0a36.7 36.7 0 1 0 73.4 0 36.7 36.7 0 1 0-73.4 0Z" fill="#F28400" p-id="6511"></path><path d="M693.5 358m-36.7 0a36.7 36.7 0 1 0 73.4 0 36.7 36.7 0 1 0-73.4 0Z" fill="#F28400" p-id="6512"></path><path d="M294.5 656m-36.7 0a36.7 36.7 0 1 0 73.4 0 36.7 36.7 0 1 0-73.4 0Z" fill="#F28400" p-id="6513"></path><path d="M610.8 787.5m-36.7 0a36.7 36.7 0 1 0 73.4 0 36.7 36.7 0 1 0-73.4 0Z" fill="#FFFFFF" p-id="6514"></path><path d="M351 384m-36.7 0a36.7 36.7 0 1 0 73.4 0 36.7 36.7 0 1 0-73.4 0Z" fill="#FFFFFF" p-id="6515"></path></svg>