<?xml version="1.0" standalone="no"?><!DOCTYPE svg PUBLIC "-//W3C//DTD SVG 1.1//EN" "http://www.w3.org/Graphics/SVG/1.1/DTD/svg11.dtd"><svg t="1550048240338" class="icon" style="" viewBox="0 0 1024 1024" version="1.1" xmlns="http://www.w3.org/2000/svg" p-id="6079" xmlns:xlink="http://www.w3.org/1999/xlink" width="48" height="48"><defs><style type="text/css"></style></defs><path d="M848.5 952.1H174.2c-3.8 0-6.8-3.1-6.8-6.8V550h689.2v394c0 4.4-3.6 8.1-8.1 8.1z" fill="#A03A12" p-id="6080"></path><path d="M167.4 686.1h0.5c5.2 66.6 60.3 119 127.8 119 47.7 0 89.2-26.2 111.3-65.1 22.1 38.8 63.6 65.1 111.3 65.1 43.5 0 81.9-21.9 105.1-55.2 23.2 33.4 61.6 55.2 105.1 55.2 67.4 0 122.6-52.4 127.8-119h0.5V573.8H167.4v112.3z" fill="#FFCE31" p-id="6081"></path><path d="M167.4 844.1c-13.8 0-25-11.2-25-25v-10.7c0-13.8 11.2-25 25-25s25 11.2 25 25v10.7c0 13.8-11.2 25-25 25z" fill="#231E21" p-id="6082"></path><path d="M733.5 550v402.1h42.9c44.3 0 80.1-35.9 80.1-80.1V550h-123z" fill="#843117" p-id="6083"></path><path d="M628.5 977.1H234.7c-50.9 0-92.3-41.4-92.3-92.3 0-13.8 11.2-25 25-25s25 11.2 25 25c0 23.3 19 42.3 42.3 42.3h393.8c13.8 0 25 11.2 25 25s-11.2 25-25 25z" fill="#231E21" p-id="6084"></path><path d="M789.3 977.1h-55.8c-13.8 0-25-11.2-25-25s11.2-25 25-25h55.8c23.3 0 42.3-19 42.3-42.3V575H192.4v176c0 13.8-11.2 25-25 25s-25-11.2-25-25V550c0-13.8 11.2-25 25-25h689.2c13.8 0 25 11.2 25 25v334.8c0 50.9-41.4 92.3-92.3 92.3z" fill="#231E21" p-id="6085"></path><path d="M696.3 573.8c12.3 24.1 18.9 51.8 17.6 83.7 0 0 17.3 75.5-59.4 123.9 20.9 14.9 46.3 23.7 73.9 23.7 67.4 0 122.6-52.4 127.8-119h0.5V573.8H696.3z" fill="#F28400" p-id="6086"></path><path d="M167.4 587.6h0.5c5.2 66.6 60.3 119 127.8 119 47.7 0 89.2-26.2 111.3-65.1 22.1 38.8 63.6 65.1 111.3 65.1 43.5 0 81.9-21.9 105.1-55.2 23.2 33.4 61.6 55.2 105.1 55.2 67.4 0 122.6-52.4 127.8-119h0.5V475.3H167.4v112.3z" fill="#96D107" p-id="6087"></path><path d="M696.3 475.3c12.3 24.1 18.9 51.8 17.6 83.7 0 0 17.3 75.5-59.4 123.9 20.9 14.9 46.3 23.7 73.9 23.7 67.4 0 122.6-52.4 127.8-119h0.5V475.3H696.3z" fill="#67A800" p-id="6088"></path><path d="M728.4 731.6c-39.4 0-76.9-15.3-105.1-42-28.2 26.7-65.7 42-105.1 42-42.5 0-82.6-17.9-111.3-48.3-28.6 30.4-68.8 48.3-111.3 48.3-38.9 0-75.9-14.7-104.3-41.3-26.9-25.2-43.7-58.9-47.8-95.3-0.7-2.3-1.1-4.8-1.1-7.4 0-13.8 11.2-25 25-25h0.5c13.1 0 23.9 10.1 24.9 23.1 2 26.1 13.6 50.3 32.7 68.1 19.1 17.9 44 27.8 70.1 27.8 36.8 0 71.1-20.1 89.5-52.4 4.4-7.8 12.7-12.6 21.7-12.6s17.3 4.8 21.7 12.6c18.4 32.3 52.7 52.4 89.5 52.4 33.6 0 65.2-16.6 84.6-44.5 4.7-6.7 12.3-10.7 20.5-10.7s15.9 4 20.5 10.7c19.4 27.9 51 44.5 84.6 44.5 26.1 0 51-9.9 70.1-27.8 19.1-17.9 30.7-42.1 32.7-68.1 1-13 11.9-23.1 24.9-23.1h0.5c13.8 0 25 11.2 25 25 0 2.6-0.4 5-1.1 7.4-4.1 36.5-21 70.2-47.8 95.3-28.2 26.6-65.3 41.3-104.1 41.3z" fill="#231E21" p-id="6089"></path><path d="M728.4 830.1c-39.4 0-76.9-15.3-105.1-42-28.2 26.7-65.7 42-105.1 42-42.5 0-82.6-17.9-111.3-48.3-28.6 30.4-68.8 48.3-111.3 48.3-38.9 0-75.9-14.7-104.3-41.3-26.9-25.2-43.7-58.9-47.8-95.3-0.7-2.3-1.1-4.8-1.1-7.4 0-13.8 11.2-25 25-25h0.5c13.1 0 23.9 10.1 24.9 23.1 2 26.1 13.6 50.3 32.7 68.1 19.1 17.9 44 27.8 70.1 27.8 36.8 0 71.1-20.1 89.5-52.4 4.4-7.8 12.7-12.6 21.7-12.6s17.3 4.8 21.7 12.6c18.4 32.3 52.7 52.4 89.5 52.4 33.6 0 65.2-16.6 84.6-44.5 4.7-6.7 12.3-10.7 20.5-10.7s15.9 4 20.5 10.7c19.4 27.9 51 44.5 84.6 44.5 26.1 0 51-9.9 70.1-27.8 19.1-17.9 30.7-42.1 32.7-68.1 1-13 11.9-23.1 24.9-23.1h0.5c13.8 0 25 11.2 25 25 0 2.6-0.4 5-1.1 7.4-4.1 36.5-21 70.2-47.8 95.3-28.2 26.6-65.3 41.3-104.1 41.3z" fill="#231E21" p-id="6090"></path><path d="M203 348.8c-63.2 0-114.4 51.2-114.4 114.4h0.6c6.3 81.8 74.1 146.2 157 146.2 58.5 0 109.5-32.2 136.7-79.9 27.2 47.7 78.1 79.9 136.7 79.9 53.5 0 100.6-26.9 129.1-67.8 28.5 41 75.6 67.8 129.1 67.8 82.9 0 150.6-64.4 157-146.2h0.6c0-63.2-51.2-114.4-114.4-114.4H203z" fill="#E25DB9" p-id="6091"></path><path d="M821 348.8h-34.5c36.3 50.8 70.9 141.5-6.7 260.5 82-1 148.8-64.9 155.1-146.1h0.6c-0.1-63.1-51.3-114.4-114.5-114.4z" fill="#B83B97" p-id="6092"></path><path d="M777.8 634.4c-48.8 0-95.1-19.7-129.1-53.9-34 34.2-80.3 53.9-129.1 53.9-32.8 0-64.9-8.9-92.9-25.6-16.4-9.8-31.2-22.1-43.8-36.5-12.6 14.3-27.4 26.7-43.8 36.5-28 16.8-60.2 25.6-92.9 25.6-46.3 0-90.4-17.5-124.3-49.2-32.2-30.1-52.3-70.5-57.1-114.2-0.8-2.5-1.3-5.1-1.3-7.8 0-76.9 62.5-139.4 139.4-139.4h492.3c13.8 0 25 11.2 25 25s-11.2 25-25 25H203c-47.7 0-86.7 37.5-89.3 84.5 0.2 1 0.3 2 0.4 3 2.6 33.5 17.5 64.5 42 87.4 24.5 23 56.5 35.7 90.1 35.7 47.3 0 91.3-25.8 115-67.3 4.4-7.8 12.7-12.6 21.7-12.6s17.3 4.8 21.7 12.6c23.6 41.5 67.7 67.3 115 67.3 43.1 0 83.7-21.3 108.6-57.1 4.7-6.7 12.3-10.7 20.5-10.7s15.9 4 20.5 10.7c24.9 35.8 65.5 57.1 108.6 57.1 33.5 0 65.5-12.7 90.1-35.7 24.5-22.9 39.4-54 42-87.4 0.1-1 0.2-2 0.4-3-2.6-47-41.6-84.5-89.3-84.5h-33.3c-13.8 0-25-11.2-25-25s11.2-25 25-25H821c76.9 0 139.4 62.5 139.4 139.4 0 2.7-0.4 5.4-1.3 7.8-4.8 43.7-24.9 84-57.1 114.2-33.8 31.8-77.9 49.2-124.2 49.2z" fill="#231E21" p-id="6093"></path><path d="M561.2 140.7c0 27.2-22 49.2-49.2 49.2s-49.2-22-49.2-49.2c0-49.2 41.7-78.8 68.9-78.8 19.7 0 29.5 51.6 29.5 78.8z" fill="#FFCE31" p-id="6094"></path><path d="M512 372.3c-13.8 0-25-11.2-25-25v-88.6c0-13.8 11.2-25 25-25s25 11.2 25 25v88.6c0 13.8-11.2 25-25 25zM512 214.9c-40.9 0-74.2-33.3-74.2-74.2 0-28.8 11.3-55.7 31.8-75.7 17.9-17.6 41.2-28.1 62.1-28.1 14.6 0 34.4 8.1 46.1 47 6.2 20.6 8.5 42.9 8.5 56.8-0.1 40.9-33.4 74.2-74.3 74.2z m14-127.1c-14.7 4-38.2 21.9-38.2 52.9 0 13.4 10.9 24.2 24.2 24.2s24.2-10.9 24.2-24.2c0-20.4-5.5-43.3-10.2-52.9z" fill="#231E21" p-id="6095"></path><path d="M226.5 451.1h-9.8c-13.8 0-25-11.2-25-25s11.2-25 25-25h9.8c13.8 0 25 11.2 25 25s-11.2 25-25 25zM561.2 451.1h-252c-13.8 0-25-11.2-25-25s11.2-25 25-25h252c13.8 0 25 11.2 25 25s-11.2 25-25 25z" fill="#FFFFFF" p-id="6096"></path></svg>