<?xml version="1.0" standalone="no"?><!DOCTYPE svg PUBLIC "-//W3C//DTD SVG 1.1//EN" "http://www.w3.org/Graphics/SVG/1.1/DTD/svg11.dtd"><svg t="1550048202157" class="icon" style="" viewBox="0 0 1024 1024" version="1.1" xmlns="http://www.w3.org/2000/svg" p-id="4613" xmlns:xlink="http://www.w3.org/1999/xlink" width="48" height="48"><defs><style type="text/css"></style></defs><path d="M247.5 81.3h105.3v436.5H247.5z" fill="#FFCE31" p-id="4614"></path><path d="M352.8 542.8H247.5c-13.8 0-25-11.2-25-25V81.3c0-13.8 11.2-25 25-25h105.3c13.8 0 25 11.2 25 25v436.5c0 13.8-11.2 25-25 25z m-80.3-50h55.3V106.3h-55.3v386.5z" fill="#231E21" p-id="4615"></path><path d="M703.703 160.844l103.7 18.28-75.777 429.866-103.7-18.28z" fill="#FFCE31" p-id="4616"></path><path d="M731.6 634c-1.4 0-2.9-0.1-4.3-0.4l-103.7-18.3c-13.6-2.4-22.7-15.4-20.3-29L679 156.5c2.4-13.6 15.4-22.7 29-20.3l103.7 18.3c6.5 1.2 12.3 4.8 16.1 10.3 3.8 5.4 5.3 12.2 4.1 18.7l-75.8 429.9c-1.2 6.5-4.8 12.3-10.3 16.1-4.1 3-9.1 4.5-14.2 4.5z m-74.8-63.5l54.5 9.6 67.1-380.6-54.5-9.6-67.1 380.6z" fill="#231E21" p-id="4617"></path><path d="M400.088 179.186l103.7-18.28 75.776 429.865-103.7 18.28z" fill="#FFCE31" p-id="4618"></path><path d="M475.9 634c-5.1 0-10.1-1.6-14.3-4.5-5.4-3.8-9.1-9.6-10.3-16.1l-75.8-429.9c-1.2-6.5 0.3-13.2 4.1-18.7 3.8-5.4 9.6-9.1 16.1-10.3l103.7-18.3c13.6-2.4 26.6 6.7 29 20.3l75.8 429.9c2.4 13.6-6.7 26.6-20.3 29l-103.7 18.3c-1.4 0.2-2.8 0.3-4.3 0.3z m-46.8-434.5l67.1 380.6 54.5-9.6-67.1-380.6-54.5 9.6z" fill="#231E21" p-id="4619"></path><path d="M561.397 131.795l103.7-18.28 75.776 429.865-103.7 18.28z" fill="#FFCE31" p-id="4620"></path><path d="M637.2 586.6c-11.9 0-22.5-8.5-24.6-20.7L536.8 136c-2.4-13.6 6.7-26.6 20.3-29l103.7-18.3c6.5-1.2 13.2 0.3 18.7 4.1 5.4 3.8 9.1 9.6 10.3 16.1L765.6 539c1.2 6.5-0.3 13.2-4.1 18.7-3.8 5.4-9.6 9.1-16.1 10.3l-103.7 18.3c-1.6 0.2-3.1 0.3-4.5 0.3zM590.4 152l67.1 380.6L712 523l-67.1-380.6-54.5 9.6z" fill="#231E21" p-id="4621"></path><path d="M371.604 284.26l103.699 18.28-75.776 429.866-103.7-18.28z" fill="#FFCE31" p-id="4622"></path><path d="M399.5 757.4c-1.4 0-2.9-0.1-4.3-0.4l-103.7-18.3c-13.6-2.4-22.7-15.4-20.3-29L347 279.8c2.4-13.6 15.4-22.7 29-20.3l103.7 18.3c6.5 1.2 12.3 4.8 16.1 10.3 3.8 5.4 5.3 12.2 4.1 18.7l-75.8 429.9c-1.2 6.5-4.8 12.3-10.3 16.1-4.2 3-9.2 4.6-14.3 4.6z m-74.8-63.6l54.5 9.6 67.1-380.6-54.5-9.6-67.1 380.6z" fill="#231E21" p-id="4623"></path><path d="M561.31 246.239l103.699 18.28-75.777 429.865-103.7-18.28z" fill="#FFCE31" p-id="4624"></path><path d="M589.3 719.4c-1.4 0-2.9-0.1-4.3-0.4l-103.7-18.3c-13.6-2.4-22.7-15.4-20.3-29l75.8-429.9c2.4-13.6 15.4-22.7 29-20.3L669.4 240c6.5 1.2 12.3 4.8 16.1 10.3 3.8 5.4 5.3 12.2 4.1 18.7l-75.8 429.9c-1.2 6.5-4.8 12.3-10.3 16.1-4.1 2.9-9.1 4.4-14.2 4.4z m-74.8-63.5l54.5 9.6 67.1-380.6-54.5-9.6-67.1 380.6z" fill="#231E21" p-id="4625"></path><path d="M668.7 395.9c0 84.2-68.3 152.5-152.5 152.5s-152.5-68.3-152.5-152.5H216.6l35.5 546.8h517.3l35.5-546.8H668.7z" fill="#F23920" p-id="4626"></path><path d="M707.6 395.9l-30.7 546.8h92.5l35.5-546.8z" fill="#CC2A19" p-id="4627"></path><path d="M783.7 748.4c-0.5 0-1.1 0-1.6-0.1-13.8-0.9-24.2-12.8-23.3-26.6l19.5-301H692c-12.2 86.1-86.4 152.5-175.8 152.5s-163.6-66.4-175.8-152.5h-97.2l10.2 162.8c0.9 13.8-9.6 25.7-23.4 26.5-13.8 0.9-25.7-9.6-26.5-23.4l-11.9-189.4c-0.4-6.9 2-13.6 6.7-18.7 4.7-5 11.3-7.9 18.2-7.9h147.1c13.8 0 25 11.2 25 25 0 70.3 57.2 127.5 127.5 127.5s127.5-57.2 127.5-127.5c0-13.8 11.2-25 25-25h136.2c6.9 0 13.5 2.9 18.2 7.9 4.7 5 7.2 11.8 6.7 18.7l-21.3 327.6c-0.7 13.5-11.7 23.6-24.7 23.6zM769.4 967.7H252.1c-13.1 0-24-10.2-24.9-23.3L214 753.3c-1-13.8 9.4-25.7 23.2-26.7 13.8-1 25.7 9.4 26.7 23.2l11.6 167.8h470.8l7.3-96.6c1-13.8 13.1-24.1 26.8-23 13.8 1 24.1 13 23 26.8l-9 119.7c-1 13.1-11.9 23.2-25 23.2zM234.3 704.1c-13.1 0-24.1-10.2-24.9-23.4l-1.4-22.2c-0.9-13.8 9.6-25.7 23.4-26.5 13.8-0.9 25.7 9.6 26.5 23.4l1.4 22.2c0.9 13.8-9.6 25.7-23.4 26.5h-1.6z" fill="#231E21" p-id="4628"></path><path d="M433.1 669.6m-25 0a25 25 0 1 0 50 0 25 25 0 1 0-50 0Z" fill="#231E21" p-id="4629"></path><path d="M555.9 669.6m-25 0a25 25 0 1 0 50 0 25 25 0 1 0-50 0Z" fill="#231E21" p-id="4630"></path><path d="M602 755.4m-18 0a18 18 0 1 0 36 0 18 18 0 1 0-36 0Z" fill="#CC2A19" p-id="4631"></path><path d="M382 755.4m-18 0a18 18 0 1 0 36 0 18 18 0 1 0-36 0Z" fill="#CC2A19" p-id="4632"></path><path d="M494.2 789.5c-29.5 0-55.2-18.9-64-47.1-2.5-7.9 2-16.3 9.9-18.8s16.3 2 18.8 9.9c4.8 15.6 19 26 35.3 26 15.3 0 28.8-9.2 34.4-23.5 0.7-1.8 1.5-3.2 2.2-4.2 2.9-6.5 10.2-10.2 17.4-8.4 8 2 12.9 10.2 10.8 18.2-0.8 3-1.9 5.1-3.1 6.7-10.4 25.1-34.5 41.2-61.7 41.2z" fill="#231E21" p-id="4633"></path><path d="M306.4 582c-13.8 0-25-11.2-25-25v-68.9c0-13.8 11.2-25 25-25s25 11.2 25 25V557c0 13.8-11.2 25-25 25z" fill="#FFFFFF" p-id="4634"></path><path d="M306.4 660.8h-1.2c-0.4 0-0.8 0-1.2-0.1-0.8-0.1-1.6-0.2-2.4-0.4l-2.4-0.6c-0.8-0.2-1.6-0.5-2.3-0.8-0.8-0.3-1.5-0.7-2.2-1-0.7-0.4-1.4-0.8-2.1-1.3-0.7-0.5-1.4-0.9-2-1.5-0.3-0.2-0.6-0.5-0.9-0.8l-0.9-0.9-0.9-0.9c-0.3-0.3-0.5-0.6-0.8-0.9-0.5-0.6-1-1.3-1.5-2s-0.9-1.4-1.3-2.1c-0.4-0.7-0.7-1.5-1-2.2-0.3-0.8-0.6-1.5-0.8-2.3l-0.6-2.4c-0.2-0.8-0.3-1.6-0.4-2.4 0-0.4-0.1-0.8-0.1-1.2v-1.2-1.2c0-0.4 0.1-0.8 0.1-1.2 0.1-0.8 0.2-1.6 0.4-2.4l0.6-2.4c0.2-0.8 0.5-1.5 0.8-2.3 0.3-0.8 0.7-1.5 1-2.2 0.4-0.7 0.8-1.4 1.3-2.1s0.9-1.3 1.5-2c0.2-0.3 0.5-0.6 0.8-0.9l0.9-0.9 0.9-0.9c0.3-0.3 0.6-0.5 0.9-0.8 0.6-0.5 1.3-1 2-1.5s1.4-0.9 2.1-1.2c0.7-0.4 1.5-0.7 2.2-1s1.5-0.6 2.3-0.8l2.4-0.6c0.8-0.2 1.6-0.3 2.4-0.4 0.4 0 0.8-0.1 1.2-0.1h2.5c0.4 0 0.8 0 1.2 0.1 0.8 0.1 1.6 0.2 2.4 0.4l2.4 0.6c0.8 0.2 1.6 0.5 2.3 0.8s1.5 0.7 2.2 1l2.1 1.2c0.7 0.5 1.3 0.9 2 1.5 0.3 0.2 0.6 0.5 0.9 0.8l0.9 0.9 0.9 0.9c0.3 0.3 0.5 0.6 0.8 0.9 0.5 0.6 1 1.3 1.5 2s0.9 1.4 1.2 2.1c0.4 0.7 0.7 1.5 1.1 2.2 0.3 0.8 0.6 1.5 0.8 2.3l0.6 2.4c0.2 0.8 0.3 1.6 0.4 2.4 0 0.4 0.1 0.8 0.1 1.2v2.4c0 0.4 0 0.8-0.1 1.2-0.1 0.8-0.2 1.6-0.4 2.4l-0.6 2.4c-0.2 0.8-0.5 1.6-0.8 2.3s-0.7 1.5-1.1 2.2l-1.2 2.1c-0.4 0.7-0.9 1.3-1.5 2-0.3 0.3-0.5 0.6-0.8 0.9l-0.9 0.9-0.9 0.9c-0.3 0.3-0.6 0.5-0.9 0.8-0.6 0.5-1.3 1-2 1.5s-1.4 0.9-2.1 1.3c-0.7 0.4-1.5 0.7-2.2 1-0.8 0.3-1.5 0.6-2.3 0.8l-2.4 0.6c-0.8 0.2-1.6 0.3-2.4 0.4-0.4 0-0.8 0.1-1.2 0.1h-1.3z" fill="#FFFFFF" p-id="4635"></path></svg>