<?xml version="1.0" standalone="no"?><!DOCTYPE svg PUBLIC "-//W3C//DTD SVG 1.1//EN" "http://www.w3.org/Graphics/SVG/1.1/DTD/svg11.dtd"><svg t="1550048158248" class="icon" style="" viewBox="0 0 1024 1024" version="1.1" xmlns="http://www.w3.org/2000/svg" p-id="3645" xmlns:xlink="http://www.w3.org/1999/xlink" width="48" height="48"><defs><style type="text/css"></style></defs><path d="M746.8 726.7H277.2l-15.1-272.6h499.8z" fill="#2AC473" p-id="3646"></path><path d="M759.3 726.7h-82.2l-2.6-272.6h87.4z" fill="#14AD55" p-id="3647"></path><path d="M746.8 880.5H277.2c-13.4 0-24.4-10.6-25-23.9l-22.7-530.2c-0.6-13.8 10.1-25.5 23.9-26 13.8-0.6 25.5 10.1 26 23.9l21.7 506.2h421.4l5.5-172c0.4-13.8 12-24.6 25.8-24.2 13.8 0.4 24.6 12 24.2 25.8l-6.3 196.2c-0.4 13.5-11.4 24.2-24.9 24.2zM762.2 571h-0.8c-13.8-0.5-24.6-12-24.2-25.8l7.4-220.7c0.5-13.8 12-24.6 25.8-24.2 13.8 0.5 24.6 12 24.2 25.8l-7.4 220.7c-0.5 13.6-11.6 24.2-25 24.2z" fill="#231E21" p-id="3648"></path><path d="M761.9 488.9H262.1c-13.8 0-25-11.2-25-25s11.2-25 25-25H762c13.8 0 25 11.2 25 25s-11.3 25-25.1 25zM746.8 751.7H277.2c-13.8 0-25-11.2-25-25s11.2-25 25-25h469.6c13.8 0 25 11.2 25 25s-11.2 25-25 25zM693.8 950.9H330.2c-10.4 0-19.7-6.5-23.4-16.2l-22.7-60.6 46.8-17.6 16.6 44.4h328.9l16.6-44.4 46.8 17.6-22.7 60.6c-3.6 9.8-12.9 16.2-23.3 16.2z" fill="#231E21" p-id="3649"></path><path d="M746.8 193.5H277.2l22.7-95.4h424.2z" fill="#2AC473" p-id="3650"></path><path d="M645.9 193.5h100.9l-22.7-95.4H633z" fill="#14AD55" p-id="3651"></path><path d="M399.5 350.3h-9.8c-13.8 0-25-11.2-25-25s11.2-25 25-25h9.8c13.8 0 25 11.2 25 25s-11.1 25-25 25z" fill="#231E21" p-id="3652"></path><path d="M807.4 350.3H474.8c-13.8 0-25-11.2-25-25s11.2-25 25-25h307.6v-68.2H241.6v68.2h66.6c13.8 0 25 11.2 25 25s-11.2 25-25 25h-91.6c-13.8 0-25-11.2-25-25V207.1c0-13.8 11.2-25 25-25h590.8c13.8 0 25 11.2 25 25v118.2c0 13.8-11.2 25-25 25z" fill="#231E21" p-id="3653"></path><path d="M722.5 199.3l-18.1-76.2H319.7l-18.1 76.2-48.6-11.6 22.7-95.4c2.7-11.3 12.7-19.2 24.3-19.2h424.1c11.6 0 21.6 7.9 24.3 19.2l22.7 95.4-48.6 11.6z" fill="#231E21" p-id="3654"></path><path d="M364.3 595.7c-13.8 0-25-11.2-25-25v-49.2c0-13.8 11.2-25 25-25s25 11.2 25 25v49.2c0 13.8-11.2 25-25 25zM364.3 674.5c-13.8 0-25-11.2-25-25v-9.8c0-13.8 11.2-25 25-25s25 11.2 25 25v9.8c0 13.8-11.2 25-25 25z" fill="#FFFFFF" p-id="3655"></path></svg>