<?xml version="1.0" standalone="no"?><!DOCTYPE svg PUBLIC "-//W3C//DTD SVG 1.1//EN" "http://www.w3.org/Graphics/SVG/1.1/DTD/svg11.dtd"><svg t="1550048260051" class="icon" style="" viewBox="0 0 1024 1024" version="1.1" xmlns="http://www.w3.org/2000/svg" p-id="6712" xmlns:xlink="http://www.w3.org/1999/xlink" width="48" height="48"><defs><style type="text/css"></style></defs><path d="M635 934H349c-11.7 0-20.3-11-17.5-22.3C354 847.1 357 777.3 340 711l-5.5-21.5c-18.7-107.1-7.8-217.2 31.4-318.5 19.9-51.5 30.1-106.3 30.1-161.5V106h192v103.4c0 55.2 10.2 110 30.1 161.5 39.2 101.4 50 211.5 31.4 318.5L644 711c-16.9 66.3-14 136.1 8.5 200.7 2.8 11.3-5.8 22.3-17.5 22.3z" fill="#8C5359" p-id="6713"></path><path d="M327.1 454.3h337.8v214.9H327.1z" fill="#F23920" p-id="6714"></path><path d="M626.5 911.7C604 847.1 601 777.3 618 711l5.5-21.5c18.7-107.1 7.8-217.2-31.4-318.5-19.9-51.6-30.1-106.3-30.1-161.6V106h-30v103.4c0 55.2 10.2 110 30.1 161.5 39.2 101.4 50 211.5 31.4 318.5L588 711c-16.9 66.3-14 136.1 8.5 200.7 2.8 11.3-5.8 22.3-17.5 22.3h30c11.7 0 20.3-11 17.5-22.3z" fill="#6A3B42" p-id="6715"></path><path d="M326.1 636.6c-13.3 0-24.4-10.5-25-24-0.3-6.4-0.4-13-0.5-19.4-0.1-13.8 10.9-25.1 24.7-25.3 13.8-0.1 25.1 10.9 25.3 24.7 0.1 5.9 0.2 12 0.5 17.9 0.6 13.8-10.1 25.4-23.9 26-0.4 0.1-0.7 0.1-1.1 0.1z" fill="#231E21" p-id="6716"></path><path d="M603.2 959h-224c-20.8 0-40.4-10.1-52.5-27.1-12.1-17-15.2-38.8-8.3-58.5 14.1-40.5 15.9-83.8 5.3-125.4l-13.4-52.4c-0.2-0.6-0.3-1.3-0.4-1.9-1-5.8-1.9-11.6-2.8-17.4-2-13.7 7.5-26.4 21.1-28.3 13.7-2 26.4 7.5 28.3 21.1 0.7 5 1.5 10.1 2.4 15l13.1 51.4c13.1 51.1 10.8 104.4-6.5 154.2-2.1 6.1 0.3 10.8 1.9 13.1 1.6 2.3 5.3 6.1 11.8 6.1h224c7.2 0 11.3-4.6 12.7-6.5 1.4-2 4.4-7.3 2-14.1-17-48.8-19.2-101-6.4-151.1l13.5-53c17.7-102.3 7.2-207.5-30.2-304.3C573.7 325.3 563 268 563 209.4V131H421v78.4c0 58.5-10.7 115.9-31.8 170.5-17.8 46-29.6 94.2-35 143.2-1.5 13.7-13.9 23.6-27.6 22.1-13.7-1.5-23.6-13.9-22.1-27.6 5.9-53.3 18.8-105.7 38.1-155.7 18.9-48.8 28.4-100.1 28.4-152.5V106c0-13.8 11.2-25 25-25h192c13.8 0 25 11.2 25 25v103.4c0 52.3 9.6 103.6 28.4 152.5 40.8 105.6 52.1 220.3 32.7 331.8-0.1 0.6-0.2 1.3-0.4 1.9l-13.8 53.9c-10.4 40.5-8.6 82.8 5.2 122.3 7 20 3.8 42.3-8.5 59.5S624.4 959 603.2 959z" fill="#231E21" p-id="6717"></path><path d="M373 61.5h240v64H373z" fill="#F23920" p-id="6718"></path><path d="M540.5 61.5H613v64h-72.5z" fill="#CC2A19" p-id="6719"></path><path d="M443.5 385.7c-2.8 0-5.7-0.5-8.4-1.5-13-4.7-19.8-19-15.1-32 13.2-36.9 21.3-75.4 23.9-114.5 0.9-13.8 12.8-24.2 26.6-23.3 13.8 0.9 24.2 12.8 23.3 26.6-2.9 43.7-11.9 86.8-26.7 128.1-3.8 10.2-13.4 16.6-23.6 16.6zM410.5 497.1c-1.6 0-3.2-0.2-4.8-0.5-13.6-2.6-22.4-15.8-19.8-29.3 2.2-11.4 4.8-23 7.7-34.3 3.4-13.4 17-21.5 30.4-18.1 13.4 3.4 21.5 17 18.1 30.4-2.6 10.4-5 21-7.1 31.5-2.3 12-12.8 20.3-24.5 20.3z" fill="#FFFFFF" p-id="6720"></path><path d="M613 170.5H373c-13.8 0-25-11.2-25-25v-84c0-13.8 11.2-25 25-25h240c13.8 0 25 11.2 25 25v84c0 13.8-11.2 25-25 25z m-215-50h190v-34H398v34z" fill="#231E21" p-id="6721"></path></svg>