<?xml version="1.0" standalone="no"?><!DOCTYPE svg PUBLIC "-//W3C//DTD SVG 1.1//EN" "http://www.w3.org/Graphics/SVG/1.1/DTD/svg11.dtd"><svg t="1550048276027" class="icon" style="" viewBox="0 0 1024 1024" version="1.1" xmlns="http://www.w3.org/2000/svg" p-id="7334" xmlns:xlink="http://www.w3.org/1999/xlink" width="48" height="48"><defs><style type="text/css"></style></defs><path d="M956 452.2c-1.8 0.1-3.6 0.1-5.4 0.1-51.5 0-94.6-35.9-105.8-84-17.5 12.2-38.8 19.3-61.8 19.3-60 0-108.6-48.6-108.6-108.6 0-12.5 2.1-24.6 6-35.8-17.4-19.3-28-44.8-28-72.8-58.9 0-106.9-46.9-108.5-105.4-10.6-0.7-21.2-1.1-32-1.1C264.6 64 64 264.6 64 512c0 247.4 200.6 448 448 448s448-200.6 448-448c0-20.3-1.4-40.2-4-59.8zM512 627c-63.5 0-115-51.5-115-115s51.5-115 115-115 115 51.5 115 115-51.5 115-115 115z" fill="#E25DB9" p-id="7335"></path><path d="M851.6 388.2c-2.8-6.3-5.1-13-6.7-19.9-8 5.5-16.7 10-26 13.2 10.2 3.9 21.2 6.2 32.7 6.7z" fill="#D143AC" p-id="7336"></path><path d="M956 452.2c-1.8 0.1-3.6 0.1-5.4 0.1-35.2 0-66.5-16.8-86.4-42.8 1.1 12.7 1.6 25.5 1.6 38.4 0 247.4-200.6 448-448 448-72.9 0-141.8-17.4-202.6-48.3 79.1 70 183 112.4 296.8 112.4 247.4 0 448-200.6 448-448 0-20.3-1.4-40.2-4-59.8z" fill="#B83B97" p-id="7337"></path><path d="M553.4 106.5c-5.7-12.7-9-26.6-9.4-41.3-10.6-0.7-21.2-1.1-32-1.1-13 0-25.8 0.6-38.5 1.6 18.9 23.7 47.6 39.3 79.9 40.8z" fill="#D143AC" p-id="7338"></path><path d="M512 985c-63.8 0-125.8-12.5-184.1-37.2C271.6 924 221 889.9 177.5 846.5s-77.5-94-101.4-150.3C51.5 637.8 39 575.8 39 512c0-97.4 29.4-190.9 84.9-270.4 7.9-11.3 23.5-14.1 34.8-6.2 11.3 7.9 14.1 23.5 6.2 34.8C115.2 341.3 89 424.9 89 512c0 57.1 11.2 112.5 33.2 164.6 21.3 50.4 51.8 95.6 90.7 134.5s84.1 69.4 134.5 90.7c52.1 22 107.5 33.2 164.6 33.2s112.5-11.2 164.6-33.2c50.4-21.3 95.6-51.8 134.5-90.7s69.4-84.1 90.7-134.5c22-52.1 33.2-107.5 33.2-164.6 0-11.9-0.5-23.9-1.5-35.8-24.3-3.2-47.4-13-66.6-28.4-15-12-27.1-27.2-35.7-44.2-15.3 5.9-31.6 9-48.2 9-73.6 0-133.6-59.9-133.6-133.6 0-10.2 1.2-20.3 3.4-30.2-12-16.5-19.9-35.4-23.4-55.4-26.3-4.6-50.7-16.9-70.2-35.9-19.4-18.9-32.3-42.6-37.6-68.6-3.2-0.1-6.5-0.1-9.7-0.1-89.4 0-174.9 27.5-247.1 79.6-11.2 8.1-26.8 5.5-34.9-5.7-8.1-11.2-5.5-26.8 5.7-34.9C316.5 69.8 412 39 512 39c11.2 0 22.5 0.4 33.7 1.2 12.8 0.9 22.9 11.4 23.2 24.2 0.6 21.8 9.6 42.2 25.2 57.5 15.7 15.3 36.4 23.7 58.3 23.7 13.8 0 25 11.2 25 25 0 20.8 7.7 40.6 21.6 56 6.1 6.8 8.1 16.4 5.1 25-3.1 8.8-4.6 18.1-4.6 27.5 0 46.1 37.5 83.6 83.6 83.6 17.1 0 33.6-5.1 47.6-14.9 6.8-4.7 15.5-5.8 23.3-2.8 7.7 3 13.5 9.6 15.4 17.7 4.2 18.1 14.5 34.5 29.1 46.2 15 12.1 33.1 18.4 52.3 18.4 1.4 0 2.8 0 4.2-0.1 13-0.6 24.3 8.8 26 21.7 2.8 20.8 4.2 42 4.2 63.1 0 63.8-12.5 125.8-37.2 184.1-24 56.3-58.1 106.9-101.5 150.4s-94 77.5-150.3 101.4C637.8 972.5 575.8 985 512 985z" fill="#231E21" p-id="7339"></path><path d="M187.7 227.9c-6.2 0-12.4-2.3-17.2-6.9-10-9.5-10.4-25.4-0.8-35.3 2.6-2.7 5.3-5.5 7.9-8.1 9.8-9.8 25.6-9.8 35.4 0 9.8 9.8 9.8 25.6 0 35.4-2.4 2.4-4.8 4.8-7.1 7.3-5 5-11.6 7.6-18.2 7.6zM512 652c-77.2 0-140-62.8-140-140s62.8-140 140-140 140 62.8 140 140-62.8 140-140 140z m0-230c-49.6 0-90 40.4-90 90s40.4 90 90 90 90-40.4 90-90-40.4-90-90-90zM663 842c-2.2 0-4.4-0.3-6.6-0.9-13.3-3.6-21.2-17.4-17.5-30.7l16.3-60c3.6-13.3 17.4-21.2 30.7-17.5 13.3 3.6 21.2 17.4 17.5 30.7l-16.3 60c-3 11.1-13.1 18.4-24.1 18.4zM487 850c-4 0-8-0.9-11.7-2.9l-71.6-38c-12.2-6.5-16.8-21.6-10.4-33.8s21.6-16.8 33.8-10.4l71.6 38c12.2 6.5 16.8 21.6 10.4 33.8-4.5 8.5-13.2 13.3-22.1 13.3zM275 682c-8.1 0-16-3.9-20.8-11.1-7.7-11.5-4.6-27 6.9-34.7l45-30c11.5-7.7 27-4.6 34.7 6.9 7.7 11.5 4.6 27-6.9 34.7l-45 30c-4.3 2.8-9.1 4.2-13.9 4.2zM187.7 588.1c-2.6 0-5.1-0.4-7.7-1.2l-44.7-14.5c-13.1-4.3-20.3-18.4-16.1-31.5 4.3-13.1 18.4-20.3 31.5-16.1l44.7 14.5c13.1 4.3 20.3 18.4 16.1 31.5-3.4 10.6-13.2 17.3-23.8 17.3zM267 470c-7.4 0-14.7-3.3-19.7-9.5-8.5-10.9-6.7-26.6 4.2-35.1l30.5-24c10.9-8.5 26.6-6.7 35.1 4.2s6.7 26.6-4.2 35.1l-30.5 24c-4.5 3.6-10 5.3-15.4 5.3zM320 345c-6.4 0-12.8-2.4-17.7-7.3l-37.8-37.8c-9.8-9.8-9.8-25.6 0-35.4 9.8-9.8 25.6-9.8 35.4 0l37.8 37.8c9.8 9.8 9.8 25.6 0 35.4-4.9 4.9-11.3 7.3-17.7 7.3zM415.4 232.5c-10.4 0-20.1-6.5-23.6-16.9-4.5-13.1 2.5-27.3 15.5-31.8l35.8-12.3c13.1-4.5 27.3 2.5 31.8 15.5 4.5 13.1-2.5 27.3-15.5 31.8l-35.8 12.3c-2.7 1-5.5 1.4-8.2 1.4zM542.4 310c-5.9 0-11.8-2.1-16.6-6.3l-30.4-26.9c-10.3-9.1-11.3-24.9-2.2-35.3 9.1-10.3 24.9-11.3 35.3-2.2l30.4 26.9c10.3 9.1 11.3 24.9 2.2 35.3-4.9 5.6-11.8 8.5-18.7 8.5zM820.1 686c-3.1 0-6.2-0.6-9.3-1.8l-47.4-19c-12.8-5.1-19-19.7-13.9-32.5s19.7-19 32.5-13.9l47.4 19c12.8 5.1 19 19.7 13.9 32.5-3.9 9.8-13.3 15.7-23.2 15.7zM794.6 573.7c-10.2 0-19.8-6.3-23.5-16.4l-21.9-59.6c-4.8-13 1.9-27.3 14.9-32.1 13-4.8 27.3 1.9 32.1 14.9l21.9 59.6c4.8 13-1.9 27.3-14.9 32.1-2.8 1-5.8 1.5-8.6 1.5z" fill="#231E21" p-id="7340"></path><path d="M320 239.9c-8.6 0-17-4.5-21.7-12.5-6.9-12-2.8-27.2 9.1-34.2 55.7-32.2 119.3-49.2 184-49.2 13.8 0 25 11.2 25 25s-11.2 25-25 25c-55.9 0-110.9 14.7-159 42.5-3.8 2.3-8.1 3.4-12.4 3.4zM246.9 296.6c-6.3 0-12.7-2.4-17.5-7.2-9.8-9.7-10-25.5-0.3-35.4 4.8-4.9 9.9-9.8 15-14.4 10.2-9.3 26-8.5 35.3 1.7 9.3 10.2 8.5 26-1.7 35.3-4.4 4-8.8 8.2-13 12.5-4.9 5-11.4 7.5-17.8 7.5zM148.5 537c-13.8 0-25-11.2-25-25 0-64.7 17-128.3 49.2-184 6.9-12 22.2-16 34.2-9.1 12 6.9 16 22.2 9.1 34.2-27.8 48.1-42.5 103.1-42.5 159 0 13.7-11.2 24.9-25 24.9z" fill="#FFFFFF" p-id="7341"></path></svg>