<?xml version="1.0" standalone="no"?><!DOCTYPE svg PUBLIC "-//W3C//DTD SVG 1.1//EN" "http://www.w3.org/Graphics/SVG/1.1/DTD/svg11.dtd"><svg t="1550048176726" class="icon" style="" viewBox="0 0 1024 1024" version="1.1" xmlns="http://www.w3.org/2000/svg" p-id="3814" xmlns:xlink="http://www.w3.org/1999/xlink" width="48" height="48"><defs><style type="text/css"></style></defs><path d="M274.4 561.2c-41.1-4.1-85.5 0.4-123.4 7 21.5 64.6 82.3 111.2 154.1 111.2 77.7 0 142.5-54.5 158.6-127.4-53.3 13.2-118.8 16.3-189.3 9.2z" fill="#BBF44D" p-id="3815"></path><path d="M375.8 564.2C356 618.7 314.6 660.1 264 674.1c13.1 3.4 26.8 5.3 41 5.3 77.7 0 142.5-54.5 158.6-127.4-26.5 6.6-56.1 10.6-87.8 12.2z" fill="#A2CE17" p-id="3816"></path><path d="M535.3 182.2m-137.8 0a137.8 137.8 0 1 0 275.6 0 137.8 137.8 0 1 0-275.6 0Z" fill="#FFCE31" p-id="3817"></path><path d="M535.3 345c-89.8 0-162.8-73.1-162.8-162.8 0-13.8 11.2-25 25-25s25 11.2 25 25c0 62.2 50.6 112.8 112.8 112.8 62.2 0 112.8-50.6 112.8-112.8S597.5 69.3 535.3 69.3c-33.6 0-65.3 14.9-86.8 40.8-8.8 10.6-24.6 12.1-35.2 3.2-10.6-8.8-12.1-24.6-3.2-35.2 31.1-37.4 76.7-58.8 125.3-58.8 89.8 0 162.8 73.1 162.8 162.8S625.1 345 535.3 345z" fill="#231E21" p-id="3818"></path><path d="M535.3 147.9c-8.3 0-15-6.7-15-15v-29.5c0-8.3 6.7-15 15-15s15 6.7 15 15v29.5c0 8.3-6.7 15-15 15zM535.3 275.9c-8.3 0-15-6.7-15-15v-29.5c0-8.3 6.7-15 15-15s15 6.7 15 15v29.5c0 8.3-6.7 15-15 15zM500.5 162.3c-3.8 0-7.7-1.5-10.6-4.4L469 137.1c-5.9-5.9-5.9-15.4 0-21.2 5.9-5.9 15.4-5.9 21.2 0l20.9 20.9c5.9 5.9 5.9 15.4 0 21.2-2.9 2.9-6.8 4.3-10.6 4.3zM591 239.4c-0.4 0-0.8-0.1-1.1-0.4l-20.8-21c-0.6-0.6-0.6-1.5 0-2.1 0.6-0.6 1.5-0.6 2.1 0l20.9 20.9c0.6 0.6 0.6 1.5 0 2.1-0.3 0.3-0.7 0.5-1.1 0.5zM486.1 197.2h-29.5c-8.3 0-15-6.7-15-15s6.7-15 15-15h29.5c8.3 0 15 6.7 15 15s-6.7 15-15 15zM614.1 183.7h-29.5c-0.8 0-1.5-0.7-1.5-1.5s0.7-1.5 1.5-1.5h29.5c0.8 0 1.5 0.7 1.5 1.5s-0.7 1.5-1.5 1.5zM479.6 252.9c-3.8 0-7.7-1.5-10.6-4.4-5.9-5.9-5.9-15.4 0-21.2l20.9-20.9c5.9-5.9 15.4-5.9 21.2 0 5.9 5.9 5.9 15.4 0 21.2l-20.9 20.9c-2.9 2.9-6.8 4.4-10.6 4.4zM570.1 162.3c-3.8 0-7.7-1.5-10.6-4.4-5.9-5.9-5.9-15.4 0-21.2l20.9-20.9c5.9-5.9 15.4-5.9 21.2 0 5.9 5.9 5.9 15.4 0 21.2l-20.9 20.9c-2.9 3-6.7 4.4-10.6 4.4z" fill="#F28400" p-id="3819"></path><path d="M768.9 767.2l-7 0.7c-35 3.3-70.2 3.3-105.2 0l-7-0.7c-76.8-7.3-128.4-82.1-108.1-156.5l17.4-72.2c27.5-114.2 25-233.6-7.2-346.5h315.1a679.491 679.491 0 0 0-7.2 346.5l17.4 72.2c20.3 74.4-31.4 149.2-108.2 156.5z" fill="#FFFFFF" p-id="3820"></path><path d="M859.6 538.5c-12.9-53.3-19.1-107.8-18.9-162.2-93.7 7.7-123.2-21.9-172.5-21.9s-61.3 14.4-90.6 19.7c1.7 59.8-4.5 105.7-18.6 164.4l-17.4 72.2c-20.4 74.4 31.3 149.2 108.1 156.5l7 0.7c35 3.3 70.2 3.3 105.2 0l7-0.7c76.8-7.3 128.4-82.1 108.1-156.5l-17.4-72.2z" fill="#FFCE31" p-id="3821"></path><path d="M877 610.7l-17.4-72.2c-12.9-53.3-19.1-107.8-18.9-162.2-33.7 2.8-59.1 0.7-80.1-3.1 0.4 1.1 0.9 2 1.3 3.1-0.2 54.4 6 108.9 18.9 162.2l17.4 72.2c20.4 74.4-31.3 149.2-108.1 156.5l-7 0.7c-4.4 0.4-8.8 0.6-13.2 0.9 30.6 2.2 61.4 2 92-0.9l7-0.7c76.8-7.3 128.5-82.1 108.1-156.5z" fill="#F28400" p-id="3822"></path><path d="M569.6 510c-1.3 0-2.6-0.1-3.9-0.3-13.6-2.2-23-14.9-20.8-28.6 0.7-4.5 1.4-9 2-13.5 1.9-13.7 14.5-23.3 28.1-21.4 13.7 1.9 23.3 14.5 21.4 28.1-0.7 4.8-1.4 9.7-2.1 14.5-1.9 12.4-12.6 21.2-24.7 21.2z" fill="#231E21" p-id="3823"></path><path d="M709.3 795.4c-18.4 0-36.7-0.9-55-2.6l-7-0.7c-44-4.2-83.6-27.4-108.7-63.8-25-36.2-32.7-81.4-21.2-123.8l11.6-47.9c3.2-13.4 16.7-21.7 30.2-18.4 13.4 3.2 21.7 16.7 18.4 30.2L566 616.7c-0.1 0.2-0.1 0.5-0.2 0.7-7.8 28.3-2.6 58.4 14 82.6 16.7 24.2 43 39.6 72.3 42.4l7 0.7c33.3 3.2 67.2 3.2 100.5 0l7-0.7c29.2-2.8 55.6-18.2 72.3-42.4 16.7-24.2 21.8-54.3 14-82.6-0.1-0.2-0.1-0.5-0.2-0.7l-17.4-72.2c-25.9-107.5-26.1-220-0.8-327.4H584.1c15.3 64.8 21.3 131.2 17.9 197.8-0.7 13.8-12.5 24.4-26.2 23.7-13.8-0.7-24.4-12.4-23.7-26.2 3.7-72.2-4.5-144-24.4-213.4-2.2-7.5-0.6-15.7 4.1-21.9 4.7-6.3 12.1-9.9 20-9.9h315.1c7.8 0 15.2 3.7 20 9.9 4.7 6.3 6.2 14.4 4.1 21.9-31 108.6-33.4 224-7 333.8l17.3 71.8c11.5 42.5 3.8 87.6-21.2 123.8-25.1 36.4-64.7 59.6-108.7 63.8l-7 0.7c-18.4 1.6-36.8 2.5-55.1 2.5z" fill="#231E21" p-id="3824"></path><path d="M620.3 616c-1.9 0-3.9-0.2-5.9-0.7-13.4-3.2-21.7-16.7-18.4-30.2l17.4-72.2c3.2-13.4 16.7-21.7 30.2-18.4 13.4 3.2 21.7 16.7 18.4 30.2l-17.4 72.2c-2.8 11.4-13 19.1-24.3 19.1zM626.7 699.5c-9.6 0-18.7-5.5-22.8-14.8-2.6-5.8-4.8-11.7-6.6-17.7-4-13.2 3.5-27.2 16.7-31.2s27.2 3.5 31.2 16.7c1.2 4 2.7 8 4.4 11.8 5.6 12.6 0 27.4-12.6 33-3.5 1.5-6.9 2.2-10.3 2.2z" fill="#FFFFFF" p-id="3825"></path><path d="M684.3 782.8h50v196.9h-50z" fill="#231E21" p-id="3826"></path><path d="M788 1004.7H630.5c-13.8 0-25-11.2-25-25s11.2-25 25-25H788c13.8 0 25 11.2 25 25s-11.2 25-25 25zM280 674.5h50v305.2h-50z" fill="#231E21" p-id="3827"></path><path d="M383.8 1004.7H226.2c-13.8 0-25-11.2-25-25s11.2-25 25-25h157.5c13.8 0 25 11.2 25 25s-11.1 25-24.9 25zM182 648c-7 0-14-2.9-18.9-8.7-2-2.3-3.9-4.6-5.7-7-8.5-10.9-6.6-26.6 4.3-35.1 10.9-8.5 26.6-6.6 35.1 4.3 1.4 1.7 2.8 3.5 4.2 5.1 9 10.5 7.9 26.2-2.6 35.3-4.8 4.1-10.6 6.1-16.4 6.1z" fill="#231E21" p-id="3828"></path><path d="M305 704.4c-28.8 0-56.4-6.3-82-18.9-12.4-6-17.6-21-11.5-33.4 6-12.4 21-17.6 33.4-11.5 18.8 9.2 39 13.8 60.1 13.8 67.3 0 123.4-48.6 135.2-112.5H169.8c1.1 5.9 2.6 11.7 4.4 17.4 4.3 13.1-2.9 27.2-16.1 31.5-13.1 4.3-27.2-2.9-31.5-16.1-6-18.6-9.1-38.1-9.1-57.8 0-13.8 11.2-25 25-25h324.9c13.8 0 25 11.2 25 25 0.1 103.4-84 187.5-187.4 187.5z" fill="#231E21" p-id="3829"></path></svg>