<?xml version="1.0" standalone="no"?><!DOCTYPE svg PUBLIC "-//W3C//DTD SVG 1.1//EN" "http://www.w3.org/Graphics/SVG/1.1/DTD/svg11.dtd"><svg t="1550048189829" class="icon" style="" viewBox="0 0 1024 1024" version="1.1" xmlns="http://www.w3.org/2000/svg" p-id="4241" xmlns:xlink="http://www.w3.org/1999/xlink" width="48" height="48"><defs><style type="text/css"></style></defs><path d="M880.9 99.1c-16.3-13-34.1-23.3-52.8-31-26.8 20.5-51.9 53.9-83.7 47-9.4-2-17.7-7.6-26.9-10.5-9.2-2.9-20.9-2.3-26.4 5.5 1.5 15 3 30.3-0.9 44.8-3.9 14.5-14.4 28.3-29.1 31.6-21.9 4.9-41.3-13.8-56.7-30.1-9.1-9.6-18.6-18.9-28.5-27.8-25.9 30.3-42.4 65.9-49.2 103-11.5 62.5-43.9 119.2-88.8 164.1l-3.1 3.1 182.1 182.1 8.3-8.3c44.1-44.1 101.1-72 162.3-84.3 41.2-8.3 80.4-28.3 112.3-60.3 91.9-92 85.7-245.1-18.9-328.9z" fill="#F28400" p-id="4242"></path><path d="M404.9 727.7l179.3-179.3-41.8-41.8-179.3 179.3c5.9 4.1 11.5 8.8 16.7 14 49 49 49 128.4 0 177.4-41.8 41.8-105.6 47.8-153.9 18.3 5.1 8.4 11.1 16.3 18.4 23.5 49 49 128.4 49 177.4 0s49-128.4 0-177.4c-5.3-5.2-10.9-9.8-16.8-14z" fill="#D8D8D8" p-id="4243"></path><path d="M140.2 590.5c-10.1 0-19.5-6.1-23.4-16.1-4.9-12.9 1.5-27.3 14.4-32.3 4.1-1.6 8.4-3 12.6-4.2 13.3-3.8 27.1 3.9 30.9 17.2 3.8 13.3-3.9 27.1-17.2 30.9-2.8 0.8-5.7 1.7-8.4 2.8-2.9 1.2-5.9 1.7-8.9 1.7z" fill="#231E21" p-id="4244"></path><path d="M332.9 980.9c-40.2 0-78-15.6-106.4-44.1-27.9-27.9-43.4-65.2-44-103.8-38.6-0.6-75.9-16.1-103.8-44C27 737.3 19.9 656.4 61.6 596.6c7.9-11.3 23.5-14.1 34.8-6.2 11.3 7.9 14.1 23.5 6.2 34.8-27.9 39.9-23.1 93.9 11.4 128.4 23.8 23.8 57.8 34.1 91 27.4 8.2-1.7 16.7 0.9 22.6 6.8 5.9 5.9 8.5 14.4 6.8 22.6-6.7 33.1 3.5 67.2 27.4 91 19 19 44.2 29.4 71 29.4 26.8 0 52-10.4 71-29.4 39.2-39.2 39.2-102.9 0-142-4-4-8.5-7.8-13.4-11.2-6-4.2-9.9-10.9-10.5-18.3-0.6-7.4 2-14.6 7.2-19.8l161.7-161.7-81.7-81.7-161.6 161.7c-5.2 5.2-12.5 7.9-19.8 7.2-7.4-0.6-14.1-4.5-18.3-10.5-3.4-4.9-7.2-9.4-11.2-13.4-11.1-11.1-24.2-19.2-38.9-24.2-13.1-4.4-20.1-18.6-15.7-31.7 4.4-13.1 18.6-20.1 31.7-15.7 21.1 7.1 40 18.5 56.1 34l160.3-160.3c9.8-9.8 25.6-9.8 35.4 0l117.1 117.1c4.7 4.7 7.3 11 7.3 17.7 0 6.6-2.6 13-7.3 17.7L441.6 726.4c56.4 58.8 55.6 152.5-2.3 210.4-28.4 28.4-66.2 44.1-106.4 44.1z" fill="#231E21" p-id="4245"></path><path d="M880.9 99.1c-1.7-1.4-3.6-2.6-5.3-4 44.5 83.5 31.7 189.4-38.6 259.8-31.9 31.9-71.2 52-112.3 60.3-61.2 12.3-118.2 40.1-162.3 84.3l-8.3 8.3-114.3-114.3c-0.7 0.7-1.3 1.5-2.1 2.2l-3.1 3.1 182.1 182.1 8.3-8.3c44.1-44.1 101.1-72 162.3-84.3 41.2-8.3 80.4-28.3 112.3-60.3 92.1-92 85.9-245.1-18.7-328.9z" fill="#CC7236" p-id="4246"></path><path d="M616.7 605.9c-6.6 0-13-2.6-17.7-7.3L416.9 416.5c-4.7-4.7-7.3-11-7.3-17.7s2.6-13 7.3-17.7l3.1-3.1c43.4-43.4 71.7-95.6 81.9-150.9 7.8-42.3 26.8-81.9 54.8-114.7 4.4-5.1 10.6-8.3 17.4-8.7 6.7-0.4 13.3 1.9 18.3 6.4 10.2 9.2 20.3 19 30 29.2 7.1 7.5 23.7 25 33.1 22.9 4-0.9 8.6-6.9 10.4-13.7 2.8-10.3 1.5-23.3 0.2-35.9-0.6-6 1-12 4.5-17 11.3-16 32.7-21.8 54.4-14.9 5.5 1.7 10.2 3.9 14.4 5.9 3.8 1.8 7.5 3.5 10.2 4 11 2.4 24-8.4 42.7-25.1 6.6-5.9 13.3-11.9 20.5-17.4 7.1-5.4 16.5-6.6 24.7-3.2 21.5 8.9 41.3 20.5 58.9 34.6 28.2 22.6 50.5 50.1 66.5 81.7 15.3 30.3 24 63 25.9 97.1 3.8 69.7-22.3 138-71.6 187.4-9.8 9.8-25.6 9.8-35.4 0-9.8-9.8-9.8-25.6 0-35.4 39.3-39.3 60.1-93.7 57-149.2-1.5-27.2-8.4-53.2-20.6-77.3-12.7-25.2-30.6-47.2-53.1-65.2-10.1-8.1-21.3-15.2-33.3-21.3-2.1 1.8-4.1 3.7-6.3 5.6-19.3 17.3-42.8 38.2-72.6 38.2-4.5 0-9.2-0.5-14-1.5-8.1-1.7-14.7-4.8-20.5-7.5-0.3-0.1-0.6-0.3-0.9-0.4 0.1 9.6-0.6 19.7-3.3 29.9-6.8 25.4-25.1 44.4-47.7 49.5-37.1 8.3-65.2-21.3-80.4-37.3-2.4-2.5-4.8-5-7.3-7.5-13.7 21.3-23.2 45.1-27.8 70-10.9 59-38.9 114.7-81.5 162.2l147.3 147.3c44.5-40.8 101.4-69.1 165.5-81.9 13.5-2.7 26.7 6 29.4 19.6 2.7 13.5-6 26.7-19.6 29.4-59 11.9-110.8 38.6-149.6 77.4l-8.3 8.3c-4.5 4.7-10.8 7.3-17.5 7.3z" fill="#231E21" p-id="4247"></path><path d="M822.4 254c-4.8 0-9.6-1.4-13.8-4.2-11.5-7.7-14.6-23.2-6.9-34.7 16.1-24.2 16.7-48.8 16.7-49v0.2h50c0 4-0.7 40-25.1 76.6-4.9 7.2-12.8 11.1-20.9 11.1zM764.9 332.4c-6.4 0-12.8-2.4-17.7-7.3-9.8-9.8-9.8-25.6 0-35.4l10.5-10.5c9.8-9.8 25.6-9.8 35.4 0 9.8 9.8 9.8 25.6 0 35.4l-10.5 10.5c-4.9 4.9-11.3 7.3-17.7 7.3z" fill="#FFFFFF" p-id="4248"></path></svg>