<?xml version="1.0" standalone="no"?><!DOCTYPE svg PUBLIC "-//W3C//DTD SVG 1.1//EN" "http://www.w3.org/Graphics/SVG/1.1/DTD/svg11.dtd"><svg t="1550048235062" class="icon" style="" viewBox="0 0 1024 1024" version="1.1" xmlns="http://www.w3.org/2000/svg" p-id="5851" xmlns:xlink="http://www.w3.org/1999/xlink" width="48" height="48"><defs><style type="text/css"></style></defs><path d="M783.2 404.5c-83 83-195.1 82-264.8 12.3S447.6 235 530.7 152s218.6-105.7 288.4-36 47.2 205.4-35.9 288.5z" fill="#FFCE31" p-id="5852"></path><path d="M819.1 116c-7.5-7.5-15.8-13.9-24.7-19.3 44.9 73.7 19 189.6-55.1 263.8-74.1 74.1-171.3 81.2-240.9 32.3 5.9 8.4 12.5 16.4 20 23.9 69.7 69.7 181.8 70.8 264.8-12.3S888.8 185.8 819.1 116z" fill="#F28400" p-id="5853"></path><path d="M712.1 99.6h-1.9-0.1c-13.8 0-24.9-11.1-25-24.9-0.1-13.8 11.1-25 24.9-25.1h2.6c13.8 0.3 24.8 11.7 24.5 25.5-0.3 13.7-11.5 24.5-25 24.5z" fill="#231E21" p-id="5854"></path><path d="M640.6 493c-52.5 0-102-20.7-139.9-58.6-39.3-39.3-60.1-91.1-58.5-145.9C443.9 233 469 178.2 513 134.2c38.2-38.2 87.8-65.8 139.8-77.9 13.4-3.1 26.9 5.2 30 18.7s-5.2 26.9-18.7 30c-43 10-84.1 32.9-115.7 64.6-34.9 34.9-54.8 77.7-56.1 120.5-1.2 40.8 14.4 79.5 43.8 109 29.5 29.5 68.2 45.1 109 43.8 42.8-1.3 85.6-21.2 120.5-56.1 36.5-36.5 61.3-85.7 68.1-134.9 6.7-48.7-4.8-90.6-32.3-118.1-11.8-11.8-26.2-20.6-43-26.4-13.1-4.5-20-18.7-15.5-31.8 4.5-13.1 18.7-20 31.8-15.5 24 8.3 44.9 21.1 62.1 38.3 20 20 34.2 44.9 42 74 7.2 26.8 8.7 55.8 4.5 86.3-8.2 59.8-38.2 119.4-82.3 163.5-44 44-98.8 69.1-154.3 70.7-2.1 0-4.1 0.1-6.1 0.1z" fill="#231E21" p-id="5855"></path><path d="M633.5 231.1m-19.4 0a19.4 19.4 0 1 0 38.8 0 19.4 19.4 0 1 0-38.8 0Z" fill="#231E21" p-id="5856"></path><path d="M704 301.6m-19.4 0a19.4 19.4 0 1 0 38.8 0 19.4 19.4 0 1 0-38.8 0Z" fill="#231E21" p-id="5857"></path><path d="M696.2 359.7m-11.6 0a11.6 11.6 0 1 0 23.2 0 11.6 11.6 0 1 0-23.2 0Z" fill="#F28400" p-id="5858"></path><path d="M578.1 241.7m-11.6 0a11.6 11.6 0 1 0 23.2 0 11.6 11.6 0 1 0-23.2 0Z" fill="#F28400" p-id="5859"></path><path d="M681.7 162.1c-10.5 0-20.2-6.6-23.7-17.1-4.4-13.1 2.7-27.3 15.8-31.6 16.2-5.4 31.3-8.1 45-8.1 11.1 0 17.9 1.9 20.3 2.7l-15.8 47.4s0.4 0.2 1.1 0.3c-0.1 0-11.7-2.5-34.7 5.2-2.7 0.8-5.4 1.2-8 1.2zM613.2 186.3c-8.6 0-16.9-4.4-21.6-12.3-7-11.9-3-27.2 8.9-34.2l6.7-3.9c11.9-7 27.2-3 34.2 8.9s3 27.2-8.9 34.2l-6.7 3.9c-3.9 2.3-8.2 3.4-12.6 3.4z" fill="#FFFFFF" p-id="5860"></path><path d="M636.6 337.2c-3.8 0-7.7-1.5-10.6-4.4l-23.7-23.7c-5.9-5.9-5.9-15.4 0-21.2 5.9-5.9 15.4-5.9 21.2 0l23.7 23.7c5.9 5.9 5.9 15.4 0 21.2-2.9 2.9-6.7 4.4-10.6 4.4z" fill="#231E21" p-id="5861"></path><path d="M441.9 408.1c83 83 82 195.1 12.3 264.8s-181.8 70.8-264.8-12.3-105.7-218.6-36-288.3 205.4-47.2 288.5 35.8z" fill="#FFCE31" p-id="5862"></path><path d="M153.4 372.3c-7.5 7.5-13.9 15.8-19.3 24.7 73.7-44.9 189.6-19 263.8 55.1 74.1 74.1 81.2 171.3 32.3 240.9 8.4-5.9 16.4-12.5 23.9-20 69.7-69.7 70.8-181.8-12.3-264.8s-218.6-105.7-288.4-35.9z" fill="#F28400" p-id="5863"></path><path d="M112 505.3c-13.8 0-24.9-11.1-25-24.9v-2.6c0.3-13.6 11.4-24.5 25-24.5h0.5c13.8 0.3 24.8 11.7 24.5 25.5v1.4c0.1 13.8-11.1 25.1-25 25.1 0.1 0 0 0 0 0z" fill="#231E21" p-id="5864"></path><path d="M331.9 749.2c-2 0-4 0-6-0.1-55.6-1.7-110.4-26.8-154.3-70.7-38.2-38.2-65.8-87.8-77.9-139.8-3.1-13.4 5.2-26.9 18.7-30 13.4-3.1 26.9 5.2 30 18.7 10 43 32.9 84.1 64.6 115.7 34.9 34.9 77.7 54.8 120.5 56.1 40.8 1.2 79.5-14.4 109-43.8s45.1-68.2 43.8-109c-1.3-42.8-21.2-85.6-56.1-120.5-36.5-36.5-85.7-61.3-134.9-68.1-48.7-6.7-90.6 4.8-118.1 32.3-11.8 11.8-20.6 26.2-26.4 43-4.5 13.1-18.7 20-31.8 15.5s-20-18.7-15.5-31.8c8.3-24 21.1-44.9 38.3-62.1 20-20 44.9-34.2 74-42 26.8-7.2 55.8-8.7 86.3-4.5 59.8 8.2 119.4 38.2 163.5 82.3 44 44 69.1 98.8 70.7 154.3 1.6 54.7-19.1 106.5-58.5 145.9-37.9 38-87.4 58.6-139.9 58.6z" fill="#231E21" p-id="5865"></path><path d="M265.3 561.1m-19.4 0a19.4 19.4 0 1 0 38.8 0 19.4 19.4 0 1 0-38.8 0Z" fill="#231E21" p-id="5866"></path><path d="M347.7 478.7m-19.4 0a19.4 19.4 0 1 0 38.8 0 19.4 19.4 0 1 0-38.8 0Z" fill="#231E21" p-id="5867"></path><path d="M397.1 495.2m-11.6 0a11.6 11.6 0 1 0 23.2 0 11.6 11.6 0 1 0-23.2 0Z" fill="#F28400" p-id="5868"></path><path d="M279.1 613.2m-11.6 0a11.6 11.6 0 1 0 23.2 0 11.6 11.6 0 1 0-23.2 0Z" fill="#F28400" p-id="5869"></path><path d="M177.5 537.6c-10.5 0-20.2-6.6-23.7-17.1-5.4-16.2-8.1-31.3-8.1-45 0-11.1 1.9-17.9 2.7-20.3l47.4 15.8s0.2-0.4 0.3-1.1c0 0.1-2.5 11.7 5.2 34.7 4.4 13.1-2.7 27.3-15.8 31.6-2.7 1-5.4 1.4-8 1.4zM198.7 603.1c-8.6 0-16.9-4.4-21.6-12.3l-3.9-6.7c-7-11.9-3-27.2 8.9-34.2 11.9-7 27.2-3 34.2 8.9l3.9 6.7c7 11.9 3 27.2-8.9 34.2-3.9 2.3-8.3 3.4-12.6 3.4z" fill="#FFFFFF" p-id="5870"></path><path d="M341.4 616.8c-1.9 0-3.7-0.3-5.6-1.1-7.7-3.1-11.4-11.8-8.4-19.5l23.7-59.3c3.1-7.7 11.8-11.4 19.5-8.4 7.7 3.1 11.4 11.8 8.4 19.5l-23.7 59.3c-2.3 5.9-7.9 9.5-13.9 9.5z" fill="#231E21" p-id="5871"></path><path d="M834.7 885.9c-83 83-195.1 82-264.8 12.3s-70.8-181.8 12.3-264.8 218.7-105.6 288.4-35.8 47.1 205.3-35.9 288.3z" fill="#FFCE31" p-id="5872"></path><path d="M870.6 597.5c-7.5-7.5-15.8-13.9-24.7-19.3 44.9 73.7 19 189.6-55.1 263.8-74.1 74.1-171.3 81.2-240.9 32.3 5.9 8.4 12.5 16.4 20 23.9 69.7 69.7 181.8 70.8 264.8-12.3s105.6-218.7 35.9-288.4z" fill="#F28400" p-id="5873"></path><path d="M764.6 581.1h-1.9-0.1c-13.8 0-25-11.1-25-24.9 0-13.8 11.1-25 24.9-25.1h2.6c13.8 0.3 24.8 11.7 24.5 25.5-0.3 13.6-11.5 24.5-25 24.5z" fill="#231E21" p-id="5874"></path><path d="M692.1 974.4c-52.5 0-102-20.7-139.9-58.6-39.3-39.3-60.1-91.1-58.5-145.9 1.7-55.6 26.8-110.4 70.7-154.3 38.2-38.2 87.8-65.8 139.8-77.9 13.4-3.1 26.9 5.2 30 18.7s-5.2 26.9-18.7 30c-43 10-84.1 32.9-115.7 64.6-34.9 34.9-54.8 77.7-56.1 120.5-1.2 40.8 14.4 79.5 43.8 109 29.5 29.5 68.2 45.1 109 43.8 42.8-1.3 85.6-21.2 120.5-56.1 36.5-36.5 61.3-85.7 68.1-134.9 6.7-48.7-4.8-90.6-32.3-118.1-11.8-11.8-26.2-20.6-43-26.4-13.1-4.5-20-18.7-15.5-31.8s18.7-20 31.8-15.5c24 8.3 44.9 21.1 62.1 38.3 20 20 34.2 44.9 42 74 7.2 26.8 8.7 55.8 4.5 86.3-8.2 59.8-38.2 119.4-82.3 163.5-44 44-98.8 69.1-154.3 70.7-2 0.1-4 0.1-6 0.1z" fill="#231E21" p-id="5875"></path><path d="M681.8 709.4m-19.4 0a19.4 19.4 0 1 0 38.8 0 19.4 19.4 0 1 0-38.8 0Z" fill="#231E21" p-id="5876"></path><path d="M764.1 791.7m-19.4 0a19.4 19.4 0 1 0 38.8 0 19.4 19.4 0 1 0-38.8 0Z" fill="#231E21" p-id="5877"></path><path d="M747.7 841.2m-11.6 0a11.6 11.6 0 1 0 23.2 0 11.6 11.6 0 1 0-23.2 0Z" fill="#F28400" p-id="5878"></path><path d="M629.6 723.1m-11.6 0a11.6 11.6 0 1 0 23.2 0 11.6 11.6 0 1 0-23.2 0Z" fill="#F28400" p-id="5879"></path><path d="M700.6 812.2c-10.2 0-20.1-4-27.6-11.5-12.2-12.2-15-30.7-7-46 3.9-7.3 12.9-10.1 20.3-6.3 7.3 3.9 10.1 12.9 6.3 20.3-1.9 3.6-1.2 7.9 1.6 10.8 2.7 2.7 6.7 3.5 10.2 1.9 1-0.5 2.1-0.8 3.2-1 6.5-2.1 13.9 0.5 17.5 6.6 4.2 7.1 1.9 16.3-5.2 20.6-1.6 1-3.3 1.6-5 2-4.7 1.7-9.6 2.6-14.3 2.6z m3.9-30.5z" fill="#231E21" p-id="5880"></path><path d="M730.2 646.5c-10.5 0-20.2-6.6-23.7-17.1-4.4-13.1 2.7-27.3 15.8-31.6 16.2-5.4 31.3-8.1 45-8.1 11.1 0 17.9 1.9 20.3 2.7l-15.8 47.4s0.4 0.2 1.1 0.3c-0.1 0-11.7-2.5-34.7 5.2-2.7 0.8-5.4 1.2-8 1.2z" fill="#FFFFFF" p-id="5881"></path><path d="M664.7 667.7c-8.6 0-16.9-4.4-21.6-12.3-7-11.9-3-27.2 8.9-34.2l6.7-3.9c11.9-7 27.2-3 34.2 8.9 7 11.9 3 27.2-8.9 34.2l-6.7 3.9c-3.9 2.3-8.3 3.4-12.6 3.4z" fill="#FFFFFF" p-id="5882"></path></svg>