<?xml version="1.0" standalone="no"?><!DOCTYPE svg PUBLIC "-//W3C//DTD SVG 1.1//EN" "http://www.w3.org/Graphics/SVG/1.1/DTD/svg11.dtd"><svg t="1550048069567" class="icon" style="" viewBox="0 0 1024 1024" version="1.1" xmlns="http://www.w3.org/2000/svg" p-id="3316" xmlns:xlink="http://www.w3.org/1999/xlink" width="48" height="48"><defs><style type="text/css"></style></defs><path d="M893.9 408.6h-771c-2.6 0-4.7-2.1-4.7-4.7v-58.3c0-139.2 112.8-252.1 252.1-252.1h276.4c139.2 0 252.1 112.8 252.1 252.1v58.3c-0.2 2.6-2.3 4.7-4.9 4.7z" fill="#FFCE31" p-id="3317"></path><path d="M634.8 93.5H563c120.5 23.1 211.3 124.3 211.3 245.6v52.7c0 5.9-1.3 11.5-3.4 16.7H850c26.9 0 48.7-20.7 48.7-46.3V344c-0.1-138.3-118.2-250.5-263.9-250.5z" fill="#F28400" p-id="3318"></path><path d="M250.3 403.7h518.2V512H250.3zM250.3 669.5h518.2v187.1H250.3z" fill="#2AC473" p-id="3319"></path><path d="M277.5 138.3c-10.3 0-20-6.4-23.6-16.7-4.6-13 2.2-27.3 15.3-31.9 4.9-1.7 10-3.4 15-4.9 13.2-4 27.2 3.4 31.2 16.6 4 13.2-3.4 27.2-16.6 31.2-4.3 1.3-8.7 2.7-12.9 4.3-2.8 0.9-5.6 1.4-8.4 1.4z" fill="#231E21" p-id="3320"></path><path d="M849.9 433.6h-683c-40.6 0-73.7-32-73.7-71.3v-18.2c0-79.7 36.2-155.5 99.2-207.9 10.6-8.8 26.4-7.4 35.2 3.2 8.8 10.6 7.4 26.4-3.2 35.2-51.6 42.9-81.2 104.6-81.2 169.5v18.2c0 11.7 10.6 21.3 23.7 21.3H850c13.1 0 23.7-9.5 23.7-21.3v-18.2c0-124.4-107.1-225.6-238.8-225.6H382c-13.8 0-25-11.2-25-25s11.2-25 25-25h252.9c76.9 0 149.3 28.5 203.8 80.3 54.8 52.1 85 121.5 85 195.3v18.2c-0.1 39.3-33.1 71.3-73.8 71.3z" fill="#231E21" p-id="3321"></path><path d="M426.7 187.5h-7.8c-13.8 0-25-11.2-25-25s11.2-25 25-25h7.8c13.8 0 25 11.2 25 25s-11.2 25-25 25zM230.7 271.2c-5.5 0-11-1.8-15.7-5.5-10.8-8.7-12.4-24.4-3.8-35.2 20.4-25.3 47-46.3 76.8-60.6 17.3-8.3 35.7-14.4 54.7-18.2 13.5-2.7 26.7 6.1 29.4 19.7s-6.1 26.7-19.7 29.4c-14.8 2.9-29.2 7.7-42.7 14.2-23.2 11.1-43.7 27.3-59.5 46.9-5 6.1-12.2 9.3-19.5 9.3z" fill="#FFFFFF" p-id="3322"></path><path d="M785.6 930.5h-540c-56.7 0-104.5-40.3-111.1-93.9l-5.2-41.8c-2.1-16.9 11.8-31.7 29.6-31.7h395.4l39.3 43.1c26.6 29.2 74.4 29.2 101 0l39.3-43.1h138.3c17.9 0 31.7 14.8 29.6 31.7l-5.2 41.8c-6.5 53.5-54.2 93.9-111 93.9z" fill="#FFCE31" p-id="3323"></path><path d="M872.3 763.1H747.9c17.9 0 31.7 14.8 29.6 31.7l-5.2 41.8c-6.6 53.5-54.4 93.9-111.1 93.9h124.4c56.7 0 104.5-40.3 111.1-93.9l5.2-41.8c2.1-16.9-11.7-31.7-29.6-31.7z" fill="#F28400" p-id="3324"></path><path d="M834.2 595.7H197c-39.5 0-71.6-26.4-71.6-59.1 0-32.6 32.1-59.1 71.6-59.1h101.2l52.5 33.9c22.7 14.6 54.7 14 76.6-1.4l46-32.5h361c39.5 0 71.6 26.4 71.6 59.1-0.1 32.6-32.1 59.1-71.7 59.1z" fill="#FFCE31" p-id="3325"></path><path d="M834.2 477.5H760c12.9 15.1 20.9 36 20.9 59.1s-8 43.9-20.9 59.1h74.2c39.5 0 71.6-26.4 71.6-59.1 0-32.6-32-59.1-71.6-59.1z" fill="#F28400" p-id="3326"></path><path d="M684.3 955.5h-9.1c-13.8 0-25-11.2-25-25s11.2-25 25-25h9.1c13.8 0 25 11.2 25 25s-11.2 25-25 25z" fill="#231E21" p-id="3327"></path><path d="M785.6 955.5h-24.9c-13.8 0-25-11.2-25-25s11.2-25 25-25h24.9c44.1 0 81.2-30.9 86.3-72l5.2-41.8c0-0.3 0.1-1-0.7-1.9-0.4-0.5-1.7-1.7-4.1-1.7H745l-31.9 35c-17.4 19.1-42.6 30.1-69 30.1s-51.5-11-69-30.1l-31.9-35H158.9c-2.4 0-3.7 1.2-4.1 1.7-0.8 0.9-0.7 1.6-0.7 1.9l5.2 41.8c5.1 41 42.2 72 86.3 72h351.9c13.8 0 25 11.2 25 25s-11.2 25-25 25H245.6c-69.3 0-127.8-49.8-135.9-115.8l-5.2-41.8c-1.8-14.8 2.8-29.8 12.9-41.2 10.4-11.8 25.6-18.6 41.6-18.6h395.4c7 0 13.7 3 18.5 8.2l39.3 43.1c8 8.7 19.7 13.8 32 13.8 12.4 0 24.1-5 32-13.8l39.3-43.1c4.7-5.2 11.4-8.2 18.5-8.2h138.3c16 0 31.2 6.8 41.6 18.6 10 11.3 14.7 26.3 12.9 41.2l-5.2 41.8c-8.2 66-66.7 115.8-136 115.8z" fill="#231E21" p-id="3328"></path><path d="M870 576l35.8 118.2-110.4-9.9-143.2 9.9-136.6-9.9-137.9 9.9-119.3-9.9-133 9.9L161.2 576" fill="#AF622E" p-id="3329"></path><path d="M870 576H746.9l27.5 109.8 21.1-1.5 110.3 9.9z" fill="#9B511F" p-id="3330"></path><path d="M834.2 620.7H197c-24.9 0-48.6-8.2-66.5-23-19.1-15.8-30.1-38-30.1-61.1 0-23 11-45.3 30.1-61.1 18-14.8 41.6-23 66.5-23h101.2c4.8 0 9.5 1.4 13.6 4l52.5 33.9c14.1 9.1 35 8.8 48.6-0.8l46-32.5c4.2-3 9.3-4.6 14.4-4.6h361c24.9 0 48.6 8.2 66.5 23 19.1 15.8 30.1 38 30.1 61.1 0 23-11 45.3-30.1 61.1-18 14.8-41.6 23-66.6 23zM197 502.5c-25.3 0-46.6 15.6-46.6 34.1s21.3 34.1 46.6 34.1h637.2c25.3 0 46.6-15.6 46.6-34.1s-21.3-34.1-46.6-34.1h-353l-39.5 27.9c-30.3 21.4-73.2 22.2-104.6 2l-46.3-29.9H197z" fill="#231E21" p-id="3331"></path><path d="M905.8 719.2c-0.7 0-1.5 0-2.2-0.1l-108.4-9.7-141.2 9.7c-1.2 0.1-2.3 0.1-3.5 0l-134.8-9.7-136.1 9.7c-1.3 0.1-2.6 0.1-3.8 0l-117.4-9.7-131.1 9.7c-8.2 0.6-16.2-2.9-21.4-9.3s-6.8-15-4.4-22.9l35.8-118.2 47.9 14.5-25.2 83.3 96.7-7.2c1.3-0.1 2.6-0.1 3.9 0L378 669l136-9.7c1.2-0.1 2.4-0.1 3.6 0l134.9 9.7 141.5-9.7c1.3-0.1 2.6-0.1 3.9 0l73.5 6.6-25.1-82.7 47.9-14.5L930 686.9c2.4 8 0.7 16.6-4.5 23-5 5.9-12.2 9.3-19.7 9.3zM223.2 384.8h50v102.6h-50zM743.5 384.8h50v102.6h-50z" fill="#231E21" p-id="3332"></path><path d="M223.2 670.4h50V773h-50zM743.5 670.4h50V773h-50z" fill="#231E21" p-id="3333"></path><path d="M525 246.5h-10.4c-13.8 0-25-11.2-25-25s11.2-25 25-25H525c13.8 0 25 11.2 25 25s-11.2 25-25 25zM670.1 246.5h-10.4c-13.8 0-25-11.2-25-25s11.2-25 25-25h10.4c13.8 0 25 11.2 25 25s-11.2 25-25 25zM442 325.3h-10.4c-13.8 0-25-11.2-25-25s11.2-25 25-25H442c13.8 0 25 11.2 25 25s-11.2 25-25 25zM587.1 325.3h-10.4c-13.8 0-25-11.2-25-25s11.2-25 25-25h10.4c13.8 0 25 11.2 25 25s-11.2 25-25 25z" fill="#F28400" p-id="3334"></path></svg>