<?xml version="1.0" standalone="no"?><!DOCTYPE svg PUBLIC "-//W3C//DTD SVG 1.1//EN" "http://www.w3.org/Graphics/SVG/1.1/DTD/svg11.dtd"><svg t="1550048196789" class="icon" style="" viewBox="0 0 1024 1024" version="1.1" xmlns="http://www.w3.org/2000/svg" p-id="4407" xmlns:xlink="http://www.w3.org/1999/xlink" width="48" height="48"><defs><style type="text/css"></style></defs><path d="M657.6 305.8h-15.8c23.3-13.9 39.4-38.4 40-67.1 0.9-42.7-31.4-78-72.8-82.1-28.8-0.2-49.9-27.4-42.9-55.3l10.5-42.1h-22.9c-51.5 0-90.7 46.2-82.2 97.1h-45.8c-43.1 0-80.7 32.5-83.5 75.5-2 31.3 13.8 59 38.3 74.1h-14.2c-44.7 0-80.9 36.2-80.9 80.9s36.2 80.9 80.9 80.9h291.2c44.7 0 80.9-36.2 80.9-80.9 0.1-44.8-36.1-81-80.8-81z" fill="#FF8FDD" p-id="4408"></path><path d="M657.6 305.8h-15.8c23.3-13.9 39.4-38.4 40-67.1 0.9-42.7-31.4-78-72.8-82.1-28.8-0.2-49.9-27.4-42.9-55.3l10.5-42.1h-22.9c-43.2 0-77.5 32.5-82.6 72.9 7.2 14.2 21.8 24.4 39.4 24.5 41.4 4.1 73.6 39.4 72.8 82.1-0.6 28.7-16.7 53.2-40 67.1h15.8c44.7 0 80.9 36.2 80.9 80.9s-36.2 80.9-80.9 80.9h98.5c44.7 0 80.9-36.2 80.9-80.9s-36.3-80.9-80.9-80.9z" fill="#E25DB9" p-id="4409"></path><path d="M601 964.9H423l-80.8-412.5h339.6z" fill="#F28400" p-id="4410"></path><path d="M614.3 552.4l-75.1 412.5H601l80.8-412.5z" fill="#CC7236" p-id="4411"></path><path d="M285.5 471.6h452.9v80.9H285.5z" fill="#FFCE31" p-id="4412"></path><path d="M738.5 577.4h-453c-7.7 0-14.9-3.5-19.7-9.6-4.7-6-6.4-13.9-4.6-21.4l19.7-80.9c2.7-11.2 12.8-19.1 24.3-19.1h413.5c11.5 0 21.6 7.9 24.3 19.1l19.7 80.9c1.8 7.5 0.1 15.3-4.6 21.4-4.7 6.1-12 9.6-19.6 9.6z m-421.1-50h389.3l-7.5-30.9H324.9l-7.5 30.9z" fill="#231E21" p-id="4413"></path><path d="M601 989.9H423c-12 0-22.2-8.5-24.5-20.2l-80.9-412.5c-1.4-7.3 0.5-14.9 5.2-20.7 4.7-5.8 11.8-9.1 19.3-9.1h339.7c7.5 0 14.6 3.3 19.3 9.1 4.7 5.8 6.7 13.4 5.2 20.7l-42.5 216.7c-2.7 13.5-15.8 22.4-29.3 19.7-13.5-2.7-22.4-15.8-19.7-29.3l36.6-186.9H372.5l71.1 362.5h137.6l16.9-70.5c3.2-13.4 16.7-21.7 30.1-18.5 13.4 3.2 21.7 16.7 18.5 30.1l-21.4 89.7c-2.7 11.3-12.8 19.2-24.3 19.2zM657.6 492.5H366.4c-58.4 0-105.9-47.5-105.9-105.9 0-45.5 28.9-84.5 69.3-99.4-9.3-17.2-13.8-37-12.5-57.2 0.4-6.2 1.4-12.5 2.9-18.5 3.4-13.4 17-21.5 30.4-18.1 13.4 3.4 21.5 17 18.1 30.4-0.8 3.1-1.3 6.3-1.5 9.5-1.3 20.7 8.8 40.3 26.5 51.3 9.5 5.9 13.9 17.3 10.9 28.1-3.1 10.7-12.9 18.2-24 18.2h-14.2c-30.8 0-55.9 25.1-55.9 55.9 0 30.8 25.1 55.9 55.9 55.9h291.2c30.8 0 55.9-25.1 55.9-55.9 0-30.8-25.1-55.9-55.9-55.9h-15.8c-11.3 0-21.1-7.5-24.1-18.4-3-10.8 1.6-22.4 11.3-28.1 17-10.2 27.5-27.4 27.8-46.1 0.6-28.7-21-53.4-49.3-56.7-20.9-0.6-40.2-10.3-53.1-26.9-13.1-17-17.7-38.6-12.5-59.5l2.6-10.3c-13.7 2.2-26.2 9.2-35.2 19.9-11.1 13.1-15.9 30.4-13 47.3 1.2 7.2-0.8 14.7-5.6 20.3-4.8 5.6-11.7 8.8-19.1 8.8H453c-13.8 0-25-11.2-25-25 0-11.4 7.6-21 18-24 2.1-21.8 10.7-42.7 25.2-59.7 20.6-24.3 50.8-38.3 82.7-38.3h22.9c7.7 0 15 3.5 19.7 9.6 4.7 6.1 6.4 14 4.5 21.4l-10.5 42.1c-1.5 5.8-0.2 11.9 3.5 16.7 3.7 4.8 9.3 7.5 15.3 7.6 0.8 0 1.5 0 2.3 0.1 26.4 2.6 50.7 15 68.4 34.8 17.9 20 27.4 45.8 26.9 72.7-0.3 17.1-4.9 33.4-13 48 40.6 14.8 69.6 53.8 69.6 99.5 0 58.3-47.5 105.8-105.9 105.8z" fill="#231E21" p-id="4414"></path><path d="M387.6 190.2c-9.2 0-18-5.1-22.4-13.8-6.2-12.4-1.2-27.4 11.2-33.6 3.9-2 8-3.7 12.2-5.2 13-4.7 27.3 2.1 32 15.1 4.7 13-2.1 27.3-15.1 32-2.3 0.8-4.5 1.8-6.7 2.9-3.7 1.7-7.5 2.6-11.2 2.6z" fill="#231E21" p-id="4415"></path><path d="M424.9 267.7c-13.8 0-25-11.2-25-25 0-17.4 1.4-23.2 4.1-28.4 6.4-12.2 21.5-17 33.7-10.6 10.7 5.6 15.7 17.8 12.5 29-0.2 1.8-0.3 5.4-0.3 10 0 13.8-11.2 25-25 25zM433.7 422.8c-11.7 0-22.2-8.3-24.5-20.3-3.1-16.1-4.6-44.1 1.7-56.2 6.4-12.2 21.5-17 33.7-10.6 10.8 5.7 15.8 18.2 12.3 29.4-0.5 3.9-1 15.4 1.4 27.8 2.6 13.6-6.2 26.7-19.8 29.3-1.6 0.5-3.2 0.6-4.8 0.6z m21.5-53.3s0 0.1 0 0c0 0.1 0 0 0 0z m0 0z" fill="#FFFFFF" p-id="4416"></path></svg>