<?xml version="1.0" standalone="no"?><!DOCTYPE svg PUBLIC "-//W3C//DTD SVG 1.1//EN" "http://www.w3.org/Graphics/SVG/1.1/DTD/svg11.dtd"><svg t="1550048219528" class="icon" style="" viewBox="0 0 1024 1024" version="1.1" xmlns="http://www.w3.org/2000/svg" p-id="5258" xmlns:xlink="http://www.w3.org/1999/xlink" width="48" height="48"><defs><style type="text/css"></style></defs><path d="M695.2 807.4H325.5C193.8 807.4 87 700.6 87 568.9V524c0-131.7 106.8-238.5 238.5-238.5h369.8c131.7 0 238.5 106.8 238.5 238.5v44.8c-0.1 131.8-106.8 238.6-238.6 238.6z" fill="#F2BBFF" p-id="5259"></path><path d="M672.8 285.5h-68.9c144.1 0 260.9 116.8 260.9 260.9 0 144.1-116.8 260.9-260.9 260.9h68.9c144.1 0 260.9-116.8 260.9-260.9 0-144-116.8-260.9-260.9-260.9z" fill="#E270F9" p-id="5260"></path><path d="M113.2 463.3c-3.4 0-6.9-0.7-10.2-2.2-12.6-5.6-18.3-20.4-12.7-33 2.5-5.6 5.2-11.2 8.1-16.7 6.4-12.2 21.5-16.9 33.8-10.5s16.9 21.5 10.5 33.8c-2.4 4.5-4.6 9.1-6.7 13.8-4.1 9.3-13.3 14.8-22.8 14.8zM671.2 837.3H356.1c-77.7 0-150.7-30.3-205.7-85.2s-85.2-128-85.2-205.7c0-8.4 0.4-16.9 1.1-25.2 1.2-13.8 13.3-23.9 27-22.8 13.8 1.2 24 13.3 22.8 27-0.6 6.9-0.9 13.9-0.9 20.9 0 64.3 25.1 124.8 70.5 170.3 45.5 45.5 106 70.5 170.3 70.5h315.1c48.3 0 94.8-14.2 134.6-41.1 38.9-26.3 69.1-62.9 87.3-106 5.4-12.7 20.1-18.7 32.8-13.3 12.7 5.4 18.7 20 13.3 32.8-22 52-58.4 96.2-105.3 127.9-48.1 32.7-104.3 49.9-162.6 49.9zM937 571.5c-13.8 0-25-11.2-25-25 0-64.3-25.1-124.8-70.5-170.3-45.5-45.5-106-70.5-170.3-70.5H356.1c-60.9 0-119.1 22.8-163.8 64.2-10.1 9.4-25.9 8.8-35.3-1.3-9.4-10.1-8.8-25.9 1.3-35.3 53.9-50 124.2-77.6 197.8-77.6h315.1c77.7 0 150.7 30.3 205.7 85.2s85.2 128 85.2 205.7c-0.1 13.7-11.3 24.9-25.1 24.9z" fill="#231E21" p-id="5261"></path><path d="M224.8 541.5c0-146.8 127.8-324.9 285.5-324.9s285.5 178.1 285.5 324.9-127.7 265.9-285.4 265.9-285.6-119-285.6-265.9z" fill="#F2BBFF" p-id="5262"></path><path d="M510.4 216.6c-11.7 0-23.2 1.1-34.5 3C617.3 243 727 405.6 727 541.6s-109.6 248-251.1 263.9c11.3 1.3 22.8 2 34.5 2 157.7 0 285.5-119 285.5-265.8S668.1 216.6 510.4 216.6z" fill="#E270F9" p-id="5263"></path><path d="M510.4 832.4c-82.6 0-160.4-30-218.9-84.6-28.7-26.7-51.2-57.8-66.9-92.5-16.4-36-24.7-74.3-24.7-113.8 0-78.1 33.4-165.3 89.3-233.4 28.9-35.2 61.9-63.2 97.9-83.3 39.7-22.1 81.2-33.3 123.3-33.3s83.6 11.2 123.3 33.3c36 20 69 48.1 97.9 83.3 55.9 68.1 89.3 155.3 89.3 233.4 0 39.5-8.3 77.8-24.7 113.8-15.8 34.7-38.3 65.8-66.9 92.5-58.6 54.6-136.3 84.6-218.9 84.6z m0-590.8c-33.5 0-66.8 9.1-99 27-30.1 16.7-59 41.4-83.6 71.3-48.8 59.4-77.9 134.8-77.9 201.6 0 132.8 116.9 240.8 260.5 240.8 143.7 0 260.5-108 260.5-240.8 0-66.9-29.1-142.3-77.9-201.6-24.6-29.9-53.5-54.6-83.6-71.3-32.2-17.9-65.5-27-99-27z" fill="#231E21" p-id="5264"></path><path d="M510.4 891.5c-13.8 0-25-11.2-25-25v-59.1c0-13.8 11.2-25 25-25s25 11.2 25 25v59.1c0 13.8-11.2 25-25 25z" fill="#231E21" p-id="5265"></path><path d="M676.1 512c0-179.5-162.5-374.2-162.5-374.2S351.2 332.5 351.2 512s72.7 295.4 162.5 295.4S676.1 691.5 676.1 512z" fill="#F2BBFF" p-id="5266"></path><path d="M513.6 137.8s-21.7 26.1-49.2 67.8c47.8 72.5 113.2 192.5 113.2 306.4 0 145.1-47.6 248.7-113.2 283 15.5 8.1 32.1 12.4 49.2 12.4 89.7 0 162.5-115.9 162.5-295.4S513.6 137.8 513.6 137.8z" fill="#E270F9" p-id="5267"></path><path d="M411.9 911.2c-7.3 0-14.6-3.2-19.5-9.4-8.6-10.8-6.9-26.5 3.9-35.1l98.5-78.8c10.8-8.6 26.5-6.9 35.1 3.9 8.6 10.8 6.9 26.5-3.9 35.1l-98.5 78.8c-4.6 3.7-10.1 5.5-15.6 5.5z" fill="#231E21" p-id="5268"></path><path d="M513.6 832.4c-53.8 0-102.3-33-136.6-93-33.3-58.2-50.9-136.8-50.9-227.4 0-43.8 9-91.7 26.8-142.4 14-39.9 33.4-81.7 57.7-124.3 41.2-72.2 82-121.3 83.7-123.4 4.8-5.7 11.8-9 19.2-9s14.4 3.3 19.2 9c1.7 2.1 42.5 51.2 83.7 123.4 24.3 42.6 43.8 84.4 57.7 124.3 17.8 50.8 26.8 98.7 26.8 142.4 0 90.6-17.6 169.2-50.9 227.4-34.1 60-82.6 93-136.4 93z m0-653.6c-15.3 20.7-37.7 53-60 92.1-64 112.4-77.5 193.2-77.5 241.2 0 80.7 15.7 152.6 44.3 202.6 25 43.7 58.1 67.8 93.2 67.8s68.2-24.1 93.2-67.8c28.6-49.9 44.3-121.9 44.3-202.6 0-132.4-95.6-276.6-137.5-333.3z" fill="#231E21" p-id="5269"></path><path d="M618.6 911.2c-5.1 0-10.2-1.6-14.7-4.8l-108.3-78.8c-11.2-8.1-13.6-23.8-5.5-34.9 8.1-11.2 23.8-13.6 34.9-5.5L633.3 866c11.2 8.1 13.6 23.8 5.5 34.9-4.8 6.7-12.4 10.3-20.2 10.3z" fill="#231E21" p-id="5270"></path><path d="M431.6 527.2c-13.8 0-25-11.2-25-25 0-74 21.4-117.7 22.3-119.5l44.7 22.4 0.1-0.1c-5.9 12.2-17.1 48.2-17.1 97.3 0 13.7-11.2 24.9-25 24.9zM431.6 605.9c-13.8 0-25-11.2-25-25v-9.8c0-13.8 11.2-25 25-25s25 11.2 25 25v9.8c0 13.8-11.2 25-25 25z" fill="#FFFFFF" p-id="5271"></path></svg>