<?xml version="1.0" standalone="no"?><!DOCTYPE svg PUBLIC "-//W3C//DTD SVG 1.1//EN" "http://www.w3.org/Graphics/SVG/1.1/DTD/svg11.dtd"><svg t="1550048184058" class="icon" style="" viewBox="0 0 1024 1024" version="1.1" xmlns="http://www.w3.org/2000/svg" p-id="4026" xmlns:xlink="http://www.w3.org/1999/xlink" width="48" height="48"><defs><style type="text/css"></style></defs><path d="M167.9 933.2l585.9-157c-30-118.1-91.1-230-183.5-322.4S366 300.2 247.8 270.2l-157 585.9c-12.5 46.8 30.3 89.6 77.1 77.1z" fill="#FFCE31" p-id="4027"></path><path d="M712.2 658.2c2.7 9.2 5.3 18.4 7.7 27.6L134 842.8c-13.8 3.7-27.2 2.5-39-2.1l-4.1 15.5c-12.5 46.8 30.3 89.6 77 77l585.9-157c-10.2-40.3-24.1-79.7-41.6-118z" fill="#F28400" p-id="4028"></path><path d="M296.5 88.6l-48.7 181.6c118.1 30 230 91.1 322.4 183.5S723.8 658 753.8 776.2l181.6-48.7c-38.2-149-115.5-290.1-232.2-406.7S445.5 126.9 296.5 88.6z" fill="#F28400" p-id="4029"></path><path d="M903.5 628.4l-172.3 46.2c-4.5-17.8-18.3-36.6-38.6-56 27 50.4 47.4 103.3 61.2 157.7l181.6-48.7c-8.6-33.6-19.3-66.7-31.9-99.2z" fill="#F28400" p-id="4030"></path><path d="M753.8 801.2c-4.4 0-8.8-1.2-12.6-3.4-5.8-3.4-9.9-8.9-11.6-15.4-29.8-117.4-91-225-177-310.9-86-86-193.5-147.2-310.9-177-6.5-1.6-12-5.8-15.4-11.6-3.4-5.8-4.3-12.7-2.6-19.1l48.7-181.6c3.5-13.2 17.1-21.2 30.4-17.7a912.5 912.5 0 0 1 221.6 89.1C596 194 662.2 244.4 720.9 303.1c9.8 9.8 9.8 25.6 0 35.4-9.8 9.8-25.6 9.8-35.4 0-55.5-55.6-118-103.1-185.8-141.4-58.5-33-120.8-59.1-185.5-77.7l-35.7 133.3c116.6 34 223.2 97.1 309.5 183.4 86.3 86.3 149.4 192.9 183.4 309.5l133.3-35.7c-29.7-103.4-77.7-199-143-284.5-8.4-11-6.3-26.7 4.7-35 11-8.4 26.7-6.3 35 4.7 74.4 97.4 127.7 207.2 158.2 326.3 3.4 13.3-4.5 26.8-17.7 30.4l-181.6 48.7c-2.2 0.4-4.3 0.7-6.5 0.7z" fill="#231E21" p-id="4031"></path><path d="M151.2 960.4c-22.9 0-44.9-9-61.8-25.8-22.5-22.5-31-54.2-22.8-84.9l61.9-230.9c3.6-13.3 17.3-21.2 30.6-17.7 13.3 3.6 21.3 17.3 17.7 30.6L115 862.6c-3.5 13.2 0.1 26.9 9.8 36.6 9.7 9.7 23.4 13.4 36.6 9.8L723 758.5c-31.7-108.2-90.3-207-170.5-287.1-80.1-80.1-179-138.7-287.1-170.5L222 463.2c-3.6 13.3-17.3 21.2-30.6 17.7-13.3-3.6-21.3-17.3-17.7-30.6l50-186.5c3.5-13.2 17-21.1 30.3-17.8 126.2 32 241.6 97.8 334 190.1 92.3 92.3 158 207.8 190.1 334 3.4 13.3-4.5 26.8-17.8 30.3l-585.9 157c-7.8 2-15.5 3-23.2 3z" fill="#231E21" p-id="4032"></path><path d="M172.1 577.7c-2.1 0-4.3-0.3-6.5-0.9-13.3-3.6-21.3-17.3-17.7-30.6l5.4-20.2c3.6-13.3 17.3-21.3 30.6-17.7 13.3 3.6 21.3 17.3 17.7 30.6l-5.4 20.2c-2.9 11.2-13 18.6-24.1 18.6z" fill="#231E21" p-id="4033"></path><path d="M355 456.7m-67.8 0a67.8 67.8 0 1 0 135.6 0 67.8 67.8 0 1 0-135.6 0Z" fill="#F28400" p-id="4034"></path><path d="M514.7 732.9m-45.2 0a45.2 45.2 0 1 0 90.4 0 45.2 45.2 0 1 0-90.4 0Z" fill="#F28400" p-id="4035"></path><path d="M519.9 576.5m-33.9 0a33.9 33.9 0 1 0 67.8 0 33.9 33.9 0 1 0-67.8 0Z" fill="#F28400" p-id="4036"></path><path d="M365 566.2m-15.5 0a15.5 15.5 0 1 0 31 0 15.5 15.5 0 1 0-31 0Z" fill="#FFFFFF" p-id="4037"></path><path d="M352.4 715.9m-15.5 0a15.5 15.5 0 1 0 31 0 15.5 15.5 0 1 0-31 0Z" fill="#FFFFFF" p-id="4038"></path><path d="M579.5 633.3m-15.5 0a15.5 15.5 0 1 0 31 0 15.5 15.5 0 1 0-31 0Z" fill="#FFFFFF" p-id="4039"></path><path d="M486.6 633.3m-15.5 0a15.5 15.5 0 1 0 31 0 15.5 15.5 0 1 0-31 0Z" fill="#FFFFFF" p-id="4040"></path><path d="M176.8 736.5m-15.5 0a15.5 15.5 0 1 0 31 0 15.5 15.5 0 1 0-31 0Z" fill="#FFFFFF" p-id="4041"></path><path d="M401.5 659.1m-33.9 0a33.9 33.9 0 1 0 67.8 0 33.9 33.9 0 1 0-67.8 0Z" fill="#F28400" p-id="4042"></path><path d="M267.1 793.5m-56.5 0a56.5 56.5 0 1 0 113 0 56.5 56.5 0 1 0-113 0Z" fill="#F28400" p-id="4043"></path><path d="M267.1 629.1m-45.2 0a45.2 45.2 0 1 0 90.4 0 45.2 45.2 0 1 0-90.4 0Z" fill="#F28400" p-id="4044"></path></svg>