<?xml version="1.0" standalone="no"?><!DOCTYPE svg PUBLIC "-//W3C//DTD SVG 1.1//EN" "http://www.w3.org/Graphics/SVG/1.1/DTD/svg11.dtd"><svg t="1550048224833" class="icon" style="" viewBox="0 0 1024 1024" version="1.1" xmlns="http://www.w3.org/2000/svg" p-id="5468" xmlns:xlink="http://www.w3.org/1999/xlink" width="48" height="48"><defs><style type="text/css"></style></defs><path d="M205.6 886.5l-75.1-75.1c-2.3-2.3-2.3-6.1 0-8.5l190.7-190.7 83.5 83.5-190.6 190.8c-2.4 2.3-6.2 2.3-8.5 0z" fill="#F28400" p-id="5469"></path><path d="M382.755 369.72L661.21 648.174 512.649 796.737 234.193 518.281z" fill="#8CBF1D" p-id="5470"></path><path d="M531.241 221.19l278.456 278.457-148.562 148.561L382.68 369.752z" fill="#FCC21D" p-id="5471"></path><path d="M847.1 239.9l-56-56c-61.4-61.4-161-61.4-222.5 0l-37.3 37.3 278.5 278.5 37.3-37.3c61.4-61.4 61.4-161 0-222.5z" fill="#FF5A5A" p-id="5472"></path><path d="M782.4 190.1c-49.9 0.3-99.8 19.5-137.9 57.6L299.8 592.3l-69.6-69.6 306.3-306.3c66.8-66.8 169.6-75.5 245.9-26.3z" fill="#FFFFFF" opacity=".3" p-id="5473"></path><path d="M524.7 382c-6.4 0-12.8-2.4-17.7-7.3-9.8-9.8-9.8-25.6 0-35.4l7-7c9.8-9.8 25.6-9.8 35.4 0 9.8 9.8 9.8 25.6 0 35.4l-7 7c-4.9 4.8-11.3 7.3-17.7 7.3zM583.9 322.8c-6.4 0-12.8-2.4-17.7-7.3-9.8-9.8-9.8-25.6 0-35.4l40.6-40.6c9.8-9.8 25.6-9.8 35.4 0 9.8 9.8 9.8 25.6 0 35.4l-40.6 40.6c-4.9 4.8-11.3 7.3-17.7 7.3z" fill="#FFFFFF" p-id="5474"></path><path d="M427.4 350.1c-6.4 0-12.8-2.4-17.7-7.3-9.8-9.8-9.8-25.6 0-35.4l12.2-12.2c9.8-9.8 25.6-9.8 35.4 0 9.8 9.8 9.8 25.6 0 35.4l-12.2 12.2c-4.9 4.8-11.3 7.3-17.7 7.3z" fill="#231E21" p-id="5475"></path><path d="M509.2 825.2c-6.6 0-13-2.6-17.7-7.3L213 539.4c-4.7-4.7-7.3-11-7.3-17.7s2.6-13 7.3-17.7l146.2-146.2c9.8-9.8 25.6-9.8 35.4 0 9.8 9.8 9.8 25.6 0 35.4L266.1 521.7l243.1 243.1 87.3-87.3c9.8-9.8 25.6-9.8 35.4 0 9.8 9.8 9.8 25.6 0 35.4l-105 105c-4.7 4.7-11.1 7.3-17.7 7.3z" fill="#231E21" p-id="5476"></path><path d="M687.9 646.5c-6.4 0-12.8-2.4-17.7-7.3-9.8-9.8-9.8-25.6 0-35.4l127.6-127.6c67-67 67-176.1 0-243.1s-176.1-67-243.1 0l-43.5 43.5c-9.8 9.8-25.6 9.8-35.4 0-9.8-9.8-9.8-25.6 0-35.4l43.5-43.5c41.9-41.9 97.6-65 156.9-65s115 23.1 156.9 65c41.9 41.9 65 97.6 65 156.9 0 59.3-23.1 115-65 156.9L705.6 639.2c-4.9 4.9-11.3 7.3-17.7 7.3z" fill="#231E21" p-id="5477"></path><path d="M209.8 891.3c-22.5 0-43.6-8.7-59.5-24.6s-24.6-37-24.6-59.5 8.7-43.6 24.6-59.5l153.2-153.2c9.8-9.8 25.6-9.8 35.4 0 9.8 9.8 9.8 25.6 0 35.4L185.7 783.1c-6.4 6.4-10 15-10 24.1s3.5 17.7 10 24.1c6.4 6.4 15 10 24.1 10 9.1 0 17.7-3.5 24.1-10l153.2-153.2c9.8-9.8 25.6-9.8 35.4 0 9.8 9.8 9.8 25.6 0 35.4L269.3 866.6c-15.9 15.9-37 24.7-59.5 24.7z" fill="#231E21" p-id="5478"></path></svg>